LisuNew-Italic.ufo
<glyph name="exclam" format="2">
  <advance width="694"/>
  <unicode hex="0021"/>
  <outline>
    <contour>
      <point x="674" y="1112" type="qcurve"/>
      <point x="674" y="1042"/>
      <point x="621" y="954" type="qcurve"/>
      <point x="543" y="827"/>
      <point x="537" y="807" type="qcurve"/>
      <point x="459" y="582" type="line"/>
      <point x="397" y="408"/>
      <point x="373" y="385" type="qcurve"/>
      <point x="324" y="340"/>
      <point x="274" y="340" type="qcurve"/>
      <point x="225" y="340"/>
      <point x="211" y="408" type="qcurve"/>
      <point x="264" y="545"/>
      <point x="356" y="825" type="qcurve"/>
      <point x="365" y="901"/>
      <point x="397" y="1051" type="qcurve"/>
      <point x="436" y="1171"/>
      <point x="500" y="1171" type="qcurve"/>
      <point x="543" y="1171"/>
      <point x="598" y="1159" type="qcurve"/>
      <point x="674" y="1143"/>
    </contour>
    <contour>
      <point x="326" y="117" type="qcurve"/>
      <point x="326" y="70"/>
      <point x="248" y="8"/>
      <point x="199" y="8" type="qcurve"/>
      <point x="162" y="8"/>
      <point x="92" y="49"/>
      <point x="92" y="84" type="qcurve"/>
      <point x="92" y="131"/>
      <point x="141" y="166" type="qcurve"/>
      <point x="184" y="199"/>
      <point x="233" y="199" type="qcurve"/>
      <point x="268" y="199"/>
      <point x="326" y="152"/>
    </contour>
  </outline>
</glyph>
<glyph name="quotesingle" format="2">
  <advance width="512"/>
  <unicode hex="0027"/>
  <outline>
    <contour>
      <point x="551" y="1200" type="qcurve"/>
      <point x="551" y="1135"/>
      <point x="469" y="967" type="qcurve"/>
      <point x="381" y="786"/>
      <point x="330" y="786" type="qcurve"/>
      <point x="332" y="795"/>
      <point x="332" y="825" type="qcurve"/>
      <point x="332" y="903"/>
      <point x="361" y="1016" type="qcurve"/>
      <point x="399" y="1165"/>
      <point x="404" y="1204" type="qcurve"/>
      <point x="424" y="1235" type="line"/>
      <point x="438" y="1241"/>
      <point x="453" y="1241" type="qcurve"/>
      <point x="551" y="1241"/>
    </contour>
  </outline>
</glyph>
<glyph name="asterisk" format="2">
  <advance width="918"/>
  <unicode hex="002A"/>
  <outline>
    <contour>
      <point x="1061" y="1042" type="qcurve"/>
      <point x="1061" y="1010"/>
      <point x="766" y="950" type="qcurve"/>
      <point x="801" y="864"/>
      <point x="854" y="690" type="qcurve"/>
      <point x="854" y="688" type="line"/>
      <point x="776" y="709"/>
      <point x="600" y="899" type="qcurve"/>
      <point x="375" y="766"/>
      <point x="254" y="760" type="qcurve"/>
      <point x="260" y="809"/>
      <point x="348" y="897" type="qcurve"/>
      <point x="424" y="973"/>
      <point x="479" y="1008" type="qcurve"/>
      <point x="395" y="1073"/>
      <point x="242" y="1219" type="qcurve"/>
      <point x="252" y="1221"/>
      <point x="266" y="1221" type="qcurve"/>
      <point x="393" y="1221"/>
      <point x="567" y="1147" type="qcurve"/>
      <point x="756" y="1395"/>
      <point x="791" y="1395" type="qcurve"/>
      <point x="819" y="1395"/>
      <point x="819" y="1292" type="qcurve"/>
      <point x="819" y="1264"/>
      <point x="797" y="1198" type="qcurve"/>
      <point x="766" y="1108"/>
      <point x="764" y="1098" type="qcurve"/>
      <point x="819" y="1094"/>
      <point x="930" y="1083" type="qcurve"/>
      <point x="1061" y="1069"/>
    </contour>
  </outline>
</glyph>
<glyph name="two" format="2">
  <advance width="967"/>
  <unicode hex="0032"/>
  <outline>
    <contour>
      <point x="940" y="920" type="qcurve"/>
      <point x="940" y="688"/>
      <point x="532" y="354" type="qcurve"/>
      <point x="532" y="354"/>
      <point x="262" y="137" type="qcurve"/>
      <point x="336" y="117"/>
      <point x="373" y="117" type="qcurve"/>
      <point x="416" y="117"/>
      <point x="592" y="133"/>
      <point x="635" y="133" type="qcurve"/>
      <point x="705" y="133"/>
      <point x="705" y="94" type="qcurve"/>
      <point x="705" y="82"/>
      <point x="680" y="20" type="qcurve"/>
      <point x="651" y="-8"/>
      <point x="477" y="-2" type="qcurve"/>
      <point x="479" y="-23" type="line"/>
      <point x="430" y="-6"/>
      <point x="307" y="-6" type="qcurve"/>
      <point x="57" y="-6"/>
      <point x="57" y="109" type="qcurve"/>
      <point x="57" y="150"/>
      <point x="92" y="174" type="qcurve"/>
      <point x="358" y="362"/>
      <point x="504" y="496" type="qcurve"/>
      <point x="776" y="743"/>
      <point x="776" y="895" type="qcurve"/>
      <point x="776" y="954"/>
      <point x="694" y="1022"/>
      <point x="635" y="1022" type="qcurve"/>
      <point x="555" y="1022"/>
      <point x="354" y="856"/>
      <point x="340" y="856" type="qcurve"/>
      <point x="305" y="856"/>
      <point x="266" y="885" type="qcurve"/>
      <point x="258" y="901" type="line"/>
      <point x="291" y="1018"/>
      <point x="416" y="1083" type="qcurve"/>
      <point x="526" y="1141"/>
      <point x="657" y="1141" type="qcurve"/>
      <point x="778" y="1141"/>
      <point x="852" y="1092" type="qcurve"/>
      <point x="940" y="1034"/>
    </contour>
  </outline>
</glyph>
<glyph name="three" format="2">
  <advance width="954"/>
  <unicode hex="0033"/>
  <outline>
    <contour>
      <point x="930" y="918" type="qcurve"/>
      <point x="930" y="807"/>
      <point x="817" y="723" type="qcurve"/>
      <point x="815" y="721"/>
      <point x="612" y="602" type="qcurve"/>
      <point x="698" y="586"/>
      <point x="805" y="436"/>
      <point x="805" y="346" type="qcurve"/>
      <point x="805" y="195"/>
      <point x="553" y="-12"/>
      <point x="397" y="-12" type="qcurve"/>
      <point x="276" y="-12"/>
      <point x="184" y="41" type="qcurve"/>
      <point x="72" y="104"/>
      <point x="72" y="215" type="qcurve"/>
      <point x="72" y="270"/>
      <point x="162" y="270" type="qcurve"/>
      <point x="203" y="270"/>
      <point x="223" y="229" type="qcurve"/>
      <point x="250" y="172"/>
      <point x="270" y="156" type="qcurve"/>
      <point x="319" y="115"/>
      <point x="430" y="115" type="qcurve"/>
      <point x="522" y="115"/>
      <point x="647" y="248"/>
      <point x="647" y="340" type="qcurve"/>
      <point x="647" y="426"/>
      <point x="526" y="549"/>
      <point x="438" y="563" type="qcurve"/>
      <point x="420" y="567"/>
      <point x="389" y="573" type="qcurve"/>
      <point x="371" y="582"/>
      <point x="371" y="606" type="qcurve"/>
      <point x="371" y="647"/>
      <point x="393" y="678" type="qcurve"/>
      <point x="403" y="692"/>
      <point x="508" y="715" type="qcurve"/>
      <point x="627" y="741"/>
      <point x="684" y="774" type="qcurve"/>
      <point x="776" y="827"/>
      <point x="776" y="920" type="qcurve"/>
      <point x="776" y="1036"/>
      <point x="633" y="1036" type="qcurve"/>
      <point x="567" y="1036"/>
      <point x="408" y="901"/>
      <point x="360" y="901" type="qcurve"/>
      <point x="303" y="901"/>
      <point x="287" y="930" type="qcurve"/>
      <point x="322" y="1030"/>
      <point x="512" y="1155"/>
      <point x="621" y="1155" type="qcurve"/>
      <point x="750" y="1155"/>
      <point x="831" y="1102" type="qcurve"/>
      <point x="930" y="1038"/>
    </contour>
  </outline>
</glyph>
<glyph name="five" format="2">
  <advance width="1057"/>
  <unicode hex="0035"/>
  <outline>
    <contour>
      <point x="1042" y="1096" type="qcurve"/>
      <point x="1042" y="1036"/>
      <point x="1006" y="1018" type="qcurve"/>
      <point x="981" y="1006"/>
      <point x="913" y="1006" type="qcurve"/>
      <point x="528" y="1006" type="line"/>
      <point x="463" y="838"/>
      <point x="428" y="725" type="qcurve"/>
      <point x="561" y="768"/>
      <point x="627" y="768" type="qcurve"/>
      <point x="770" y="768"/>
      <point x="852" y="668" type="qcurve"/>
      <point x="928" y="575"/>
      <point x="928" y="428" type="qcurve"/>
      <point x="928" y="236"/>
      <point x="641" y="-18"/>
      <point x="446" y="-18" type="qcurve"/>
      <point x="326" y="-18"/>
      <point x="236" y="31" type="qcurve"/>
      <point x="123" y="90"/>
      <point x="123" y="201" type="qcurve"/>
      <point x="123" y="254"/>
      <point x="221" y="254" type="qcurve"/>
      <point x="256" y="254"/>
      <point x="274" y="217" type="qcurve"/>
      <point x="305" y="158"/>
      <point x="319" y="145" type="qcurve"/>
      <point x="362" y="109"/>
      <point x="446" y="109" type="qcurve"/>
      <point x="588" y="109"/>
      <point x="682" y="223" type="qcurve"/>
      <point x="770" y="332"/>
      <point x="770" y="477" type="qcurve"/>
      <point x="770" y="557"/>
      <point x="666" y="657"/>
      <point x="586" y="657" type="qcurve"/>
      <point x="539" y="657"/>
      <point x="367" y="586"/>
      <point x="367" y="586" type="qcurve"/>
      <point x="334" y="586"/>
      <point x="240" y="653" type="qcurve"/>
      <point x="229" y="676" type="line"/>
      <point x="319" y="924" type="line"/>
      <point x="346" y="997"/>
      <point x="373" y="1073" type="qcurve"/>
      <point x="408" y="1141"/>
      <point x="487" y="1141" type="qcurve"/>
      <point x="565" y="1141"/>
      <point x="879" y="1133"/>
      <point x="956" y="1133" type="qcurve"/>
      <point x="1042" y="1133"/>
    </contour>
  </outline>
</glyph>
<glyph name="six" format="2">
  <advance width="1001"/>
  <unicode hex="0036"/>
  <outline>
    <contour>
      <point x="926" y="1098" type="qcurve"/>
      <point x="926" y="1059"/>
      <point x="852" y="1010" type="qcurve"/>
      <point x="553" y="811"/>
      <point x="412" y="662" type="qcurve"/>
      <point x="610" y="707"/>
      <point x="670" y="707" type="qcurve"/>
      <point x="772" y="707"/>
      <point x="909" y="580"/>
      <point x="909" y="477" type="qcurve"/>
      <point x="909" y="287"/>
      <point x="625" y="-18"/>
      <point x="434" y="-18" type="qcurve"/>
      <point x="299" y="-18"/>
      <point x="133" y="162"/>
      <point x="133" y="299" type="qcurve"/>
      <point x="133" y="584"/>
      <point x="362" y="834" type="qcurve"/>
      <point x="571" y="1061"/>
      <point x="858" y="1157" type="qcurve"/>
      <point x="870" y="1161"/>
      <point x="885" y="1161" type="qcurve"/>
      <point x="926" y="1161"/>
    </contour>
    <contour>
      <point x="745" y="481" type="qcurve"/>
      <point x="745" y="594"/>
      <point x="639" y="594" type="qcurve"/>
      <point x="608" y="594"/>
      <point x="567" y="584" type="qcurve"/>
      <point x="510" y="492"/>
      <point x="469" y="492" type="qcurve"/>
      <point x="430" y="492"/>
      <point x="371" y="629" type="qcurve"/>
      <point x="283" y="381"/>
      <point x="283" y="297" type="qcurve"/>
      <point x="283" y="117"/>
      <point x="444" y="117" type="qcurve"/>
      <point x="565" y="117"/>
      <point x="657" y="242" type="qcurve"/>
      <point x="745" y="356"/>
    </contour>
  </outline>
</glyph>
<glyph name="eight" format="2">
  <advance width="1016"/>
  <unicode hex="0038"/>
  <outline>
    <contour>
      <point x="1012" y="1044" type="line"/>
      <point x="995" y="1040"/>
      <point x="969" y="1018" type="qcurve"/>
      <point x="936" y="997"/>
      <point x="895" y="989" type="qcurve"/>
      <point x="754" y="1047"/>
      <point x="672" y="1047" type="qcurve"/>
      <point x="578" y="1047"/>
      <point x="506" y="1010" type="qcurve"/>
      <point x="414" y="963"/>
      <point x="414" y="879" type="qcurve"/>
      <point x="414" y="817"/>
      <point x="500" y="713"/>
      <point x="561" y="694" type="qcurve"/>
      <point x="590" y="713" type="line"/>
      <point x="600" y="711" type="line"/>
      <point x="631" y="752"/>
      <point x="733" y="803" type="qcurve"/>
      <point x="848" y="860"/>
      <point x="881" y="891" type="qcurve"/>
      <point x="889" y="895"/>
      <point x="899" y="899" type="qcurve"/>
      <point x="954" y="899"/>
      <point x="954" y="805" type="qcurve"/>
      <point x="954" y="784"/>
      <point x="831" y="717" type="qcurve"/>
      <point x="698" y="643"/>
      <point x="674" y="594" type="qcurve"/>
      <point x="834" y="449"/>
      <point x="834" y="311" type="qcurve"/>
      <point x="834" y="166"/>
      <point x="690" y="72" type="qcurve"/>
      <point x="563" y="-14"/>
      <point x="412" y="-14" type="qcurve"/>
      <point x="309" y="-14"/>
      <point x="205" y="49" type="qcurve"/>
      <point x="86" y="121"/>
      <point x="86" y="217" type="qcurve"/>
      <point x="86" y="309"/>
      <point x="154" y="379" type="qcurve"/>
      <point x="176" y="401"/>
      <point x="297" y="489" type="qcurve"/>
      <point x="389" y="557"/>
      <point x="424" y="621" type="qcurve"/>
      <point x="276" y="717"/>
      <point x="276" y="879" type="qcurve"/>
      <point x="276" y="1014"/>
      <point x="424" y="1098" type="qcurve"/>
      <point x="549" y="1169"/>
      <point x="692" y="1169" type="qcurve"/>
      <point x="760" y="1169"/>
      <point x="874" y="1137" type="qcurve"/>
      <point x="1012" y="1098"/>
      <point x="1012" y="1047" type="qcurve"/>
    </contour>
    <contour>
      <point x="694" y="307" type="qcurve"/>
      <point x="694" y="406"/>
      <point x="588" y="500" type="qcurve"/>
      <point x="539" y="520" type="line"/>
      <point x="465" y="481"/>
      <point x="358" y="393" type="qcurve"/>
      <point x="229" y="285"/>
      <point x="229" y="233" type="qcurve"/>
      <point x="229" y="168"/>
      <point x="297" y="129" type="qcurve"/>
      <point x="354" y="94"/>
      <point x="424" y="94" type="qcurve"/>
      <point x="528" y="94"/>
      <point x="606" y="147" type="qcurve"/>
      <point x="694" y="207"/>
    </contour>
  </outline>
</glyph>
<glyph name="less" format="2">
  <advance width="1143"/>
  <unicode hex="003C"/>
  <outline>
    <contour>
      <point x="1151" y="850" type="qcurve"/>
      <point x="1151" y="819"/>
      <point x="1106" y="795" type="qcurve"/>
      <point x="1040" y="756"/>
      <point x="668" y="686" type="qcurve"/>
      <point x="311" y="616"/>
      <point x="205" y="614" type="qcurve"/>
      <point x="322" y="518"/>
      <point x="481" y="434" type="qcurve"/>
      <point x="627" y="362"/>
      <point x="920" y="217"/>
      <point x="920" y="188" type="qcurve"/>
      <point x="920" y="133"/>
      <point x="817" y="96" type="qcurve"/>
      <point x="702" y="131"/>
      <point x="444" y="281" type="qcurve"/>
      <point x="168" y="438"/>
      <point x="121" y="512" type="qcurve"/>
      <point x="90" y="559"/>
      <point x="90" y="588" type="qcurve"/>
      <point x="90" y="625"/>
      <point x="111" y="657" type="qcurve"/>
      <point x="170" y="686"/>
      <point x="256" y="709" type="qcurve"/>
      <point x="424" y="743"/>
      <point x="758" y="821" type="qcurve"/>
      <point x="846" y="848"/>
      <point x="934" y="874" type="qcurve"/>
      <point x="1053" y="909"/>
      <point x="1108" y="909" type="qcurve"/>
      <point x="1151" y="909"/>
    </contour>
  </outline>
</glyph>
<glyph name="B" format="2">
  <advance width="870"/>
  <unicode hex="0042"/>
  <outline>
    <contour>
      <point x="866" y="797" type="qcurve"/>
      <point x="866" y="672"/>
      <point x="674" y="588" type="qcurve"/>
      <point x="655" y="553" type="line"/>
      <point x="741" y="504"/>
      <point x="741" y="403" type="qcurve"/>
      <point x="741" y="295"/>
      <point x="618" y="221" type="qcurve"/>
      <point x="510" y="156"/>
      <point x="393" y="156" type="qcurve"/>
      <point x="248" y="156"/>
      <point x="248" y="238" type="qcurve"/>
      <point x="248" y="252"/>
      <point x="254" y="281" type="qcurve"/>
      <point x="274" y="383"/>
      <point x="424" y="768"/>
      <point x="444" y="864" type="qcurve"/>
      <point x="330" y="821" type="line"/>
      <point x="317" y="819"/>
      <point x="317" y="834" type="qcurve"/>
      <point x="317" y="913"/>
      <point x="430" y="948" type="qcurve"/>
      <point x="504" y="973"/>
      <point x="606" y="973" type="qcurve"/>
      <point x="696" y="973"/>
      <point x="774" y="930" type="qcurve"/>
      <point x="866" y="879"/>
    </contour>
    <contour>
      <point x="750" y="784" type="qcurve"/>
      <point x="750" y="836"/>
      <point x="694" y="864" type="qcurve"/>
      <point x="649" y="891"/>
      <point x="594" y="891" type="qcurve"/>
      <point x="571" y="891"/>
      <point x="479" y="868" type="qcurve"/>
      <point x="555" y="834"/>
      <point x="555" y="829" type="qcurve"/>
      <point x="555" y="823"/>
      <point x="541" y="795" type="qcurve"/>
      <point x="479" y="680"/>
      <point x="434" y="532" type="qcurve"/>
      <point x="408" y="440"/>
      <point x="356" y="260" type="qcurve"/>
      <point x="383" y="231"/>
      <point x="414" y="231" type="qcurve"/>
      <point x="494" y="231"/>
      <point x="631" y="344"/>
      <point x="631" y="424" type="qcurve"/>
      <point x="631" y="467"/>
      <point x="516" y="555"/>
      <point x="516" y="567" type="qcurve"/>
      <point x="516" y="608"/>
      <point x="584" y="645" type="qcurve"/>
      <point x="637" y="668"/>
      <point x="688" y="690" type="qcurve"/>
      <point x="750" y="727"/>
    </contour>
  </outline>
</glyph>
<glyph name="C" format="2">
  <advance width="856"/>
  <unicode hex="0043"/>
  <outline>
    <contour>
      <point x="840" y="842" type="qcurve"/>
      <point x="840" y="801"/>
      <point x="825" y="764" type="qcurve"/>
      <point x="807" y="715"/>
      <point x="772" y="715" type="qcurve"/>
      <point x="721" y="715"/>
      <point x="711" y="745" type="qcurve"/>
      <point x="741" y="807"/>
      <point x="741" y="842" type="qcurve"/>
      <point x="741" y="899"/>
      <point x="678" y="899" type="qcurve"/>
      <point x="539" y="899"/>
      <point x="420" y="694" type="qcurve"/>
      <point x="315" y="514"/>
      <point x="315" y="362" type="qcurve"/>
      <point x="315" y="236"/>
      <point x="453" y="236" type="qcurve"/>
      <point x="520" y="236"/>
      <point x="563" y="287" type="qcurve"/>
      <point x="575" y="299"/>
      <point x="621" y="383" type="qcurve"/>
      <point x="649" y="434"/>
      <point x="682" y="434" type="qcurve"/>
      <point x="735" y="434"/>
      <point x="735" y="395" type="qcurve"/>
      <point x="735" y="346"/>
      <point x="614" y="203"/>
      <point x="518" y="156"/>
      <point x="473" y="156" type="qcurve"/>
      <point x="387" y="156"/>
      <point x="352" y="164" type="qcurve"/>
      <point x="289" y="178"/>
      <point x="254" y="229" type="qcurve"/>
      <point x="215" y="289"/>
      <point x="215" y="385" type="qcurve"/>
      <point x="215" y="596"/>
      <point x="348" y="782" type="qcurve"/>
      <point x="496" y="987"/>
      <point x="698" y="987" type="qcurve"/>
      <point x="840" y="987"/>
    </contour>
  </outline>
</glyph>
<glyph name="E" format="2">
  <advance width="874"/>
  <unicode hex="0045"/>
  <outline>
    <contour>
      <point x="881" y="920" type="qcurve"/>
      <point x="881" y="858"/>
      <point x="823" y="858" type="qcurve"/>
      <point x="831" y="858"/>
      <point x="532" y="879" type="qcurve"/>
      <point x="565" y="834"/>
      <point x="565" y="821" type="qcurve"/>
      <point x="565" y="780"/>
      <point x="528" y="717" type="qcurve"/>
      <point x="477" y="631"/>
      <point x="471" y="610" type="qcurve"/>
      <point x="504" y="610"/>
      <point x="643" y="616"/>
      <point x="676" y="616" type="qcurve"/>
      <point x="729" y="616"/>
      <point x="729" y="582" type="qcurve"/>
      <point x="729" y="530"/>
      <point x="666" y="520" type="qcurve"/>
      <point x="612" y="514"/>
      <point x="618" y="514" type="qcurve"/>
      <point x="594" y="514"/>
      <point x="436" y="520" type="qcurve"/>
      <point x="375" y="285" type="line"/>
      <point x="395" y="266"/>
      <point x="414" y="266" type="qcurve"/>
      <point x="453" y="266"/>
      <point x="602" y="272"/>
      <point x="639" y="272" type="qcurve"/>
      <point x="713" y="272"/>
      <point x="713" y="231" type="qcurve"/>
      <point x="713" y="182"/>
      <point x="657" y="172" type="qcurve"/>
      <point x="641" y="168"/>
      <point x="561" y="168" type="qcurve"/>
      <point x="342" y="168"/>
      <point x="307" y="186" type="qcurve"/>
      <point x="256" y="211"/>
      <point x="256" y="262" type="qcurve"/>
      <point x="256" y="283"/>
      <point x="285" y="381" type="qcurve"/>
      <point x="326" y="510" type="line"/>
      <point x="270" y="526"/>
      <point x="270" y="559" type="qcurve"/>
      <point x="270" y="616"/>
      <point x="350" y="616" type="qcurve"/>
      <point x="352" y="621"/>
      <point x="365" y="631" type="qcurve"/>
      <point x="391" y="647"/>
      <point x="469" y="870" type="qcurve"/>
      <point x="422" y="858"/>
      <point x="416" y="858" type="qcurve"/>
      <point x="389" y="858"/>
      <point x="389" y="879" type="qcurve"/>
      <point x="389" y="940"/>
      <point x="438" y="961" type="qcurve"/>
      <point x="469" y="973"/>
      <point x="537" y="973" type="qcurve"/>
      <point x="604" y="973" type="line"/>
      <point x="870" y="973"/>
      <point x="879" y="950" type="qcurve"/>
      <point x="881" y="940"/>
    </contour>
  </outline>
</glyph>
<glyph name="F" format="2">
  <advance width="848"/>
  <unicode hex="0046"/>
  <outline>
    <contour>
      <point x="936" y="922" type="qcurve"/>
      <point x="936" y="881"/>
      <point x="883" y="870" type="qcurve"/>
      <point x="858" y="864"/>
      <point x="786" y="862" type="qcurve"/>
      <point x="733" y="860"/>
      <point x="653" y="862" type="qcurve"/>
      <point x="545" y="864" type="line"/>
      <point x="567" y="831"/>
      <point x="569" y="827" type="qcurve"/>
      <point x="569" y="821"/>
      <point x="530" y="709" type="qcurve"/>
      <point x="487" y="588"/>
      <point x="483" y="563" type="qcurve"/>
      <point x="516" y="563"/>
      <point x="651" y="569"/>
      <point x="684" y="569" type="qcurve"/>
      <point x="741" y="569"/>
      <point x="741" y="532" type="qcurve"/>
      <point x="741" y="465"/>
      <point x="680" y="465" type="qcurve"/>
      <point x="649" y="465"/>
      <point x="530" y="469"/>
      <point x="502" y="469" type="qcurve"/>
      <point x="494" y="469"/>
      <point x="444" y="467" type="qcurve"/>
      <point x="414" y="389"/>
      <point x="369" y="229" type="qcurve"/>
      <point x="354" y="162"/>
      <point x="307" y="162" type="qcurve"/>
      <point x="246" y="162"/>
      <point x="246" y="199" type="qcurve"/>
      <point x="246" y="258"/>
      <point x="332" y="457" type="qcurve"/>
      <point x="295" y="467"/>
      <point x="295" y="483" type="qcurve"/>
      <point x="295" y="557"/>
      <point x="371" y="565" type="qcurve"/>
      <point x="397" y="680"/>
      <point x="475" y="856" type="qcurve"/>
      <point x="383" y="862"/>
      <point x="383" y="893" type="qcurve"/>
      <point x="383" y="971"/>
      <point x="492" y="971" type="qcurve"/>
      <point x="866" y="971" type="line"/>
      <point x="936" y="971"/>
    </contour>
  </outline>
</glyph>
<glyph name="H" format="2">
  <advance width="969"/>
  <unicode hex="0048"/>
  <outline>
    <contour>
      <point x="975" y="944" type="qcurve"/>
      <point x="975" y="852"/>
      <point x="907" y="676" type="qcurve"/>
      <point x="907" y="676"/>
      <point x="797" y="410" type="qcurve"/>
      <point x="788" y="379"/>
      <point x="768" y="291" type="qcurve"/>
      <point x="752" y="229"/>
      <point x="739" y="209" type="qcurve"/>
      <point x="717" y="166"/>
      <point x="670" y="166" type="qcurve"/>
      <point x="627" y="166"/>
      <point x="627" y="190" type="qcurve"/>
      <point x="627" y="266"/>
      <point x="711" y="414" type="qcurve"/>
      <point x="715" y="449"/>
      <point x="739" y="512" type="qcurve"/>
      <point x="690" y="532" type="line"/>
      <point x="668" y="487"/>
      <point x="606" y="487" type="qcurve"/>
      <point x="598" y="487"/>
      <point x="565" y="492"/>
      <point x="559" y="492" type="qcurve"/>
      <point x="522" y="492"/>
      <point x="430" y="481" type="qcurve"/>
      <point x="391" y="338"/>
      <point x="334" y="174" type="qcurve"/>
      <point x="317" y="166"/>
      <point x="301" y="166" type="qcurve"/>
      <point x="242" y="166"/>
      <point x="242" y="190" type="qcurve"/>
      <point x="242" y="258"/>
      <point x="328" y="479" type="qcurve"/>
      <point x="262" y="485"/>
      <point x="262" y="504" type="qcurve"/>
      <point x="262" y="512"/>
      <point x="270" y="528" type="qcurve"/>
      <point x="283" y="559"/>
      <point x="305" y="563" type="qcurve"/>
      <point x="311" y="567"/>
      <point x="356" y="567" type="qcurve"/>
      <point x="487" y="936" type="line"/>
      <point x="500" y="971"/>
      <point x="532" y="971" type="qcurve"/>
      <point x="602" y="971"/>
      <point x="602" y="938" type="qcurve"/>
      <point x="602" y="897"/>
      <point x="465" y="569" type="qcurve"/>
      <point x="750" y="569" type="line"/>
      <point x="856" y="918" type="line"/>
      <point x="874" y="975"/>
      <point x="911" y="975" type="qcurve"/>
      <point x="930" y="975"/>
      <point x="975" y="958"/>
    </contour>
  </outline>
</glyph>
<glyph name="J" format="2">
  <advance width="807"/>
  <unicode hex="004A"/>
  <outline>
    <contour>
      <point x="799" y="936" type="qcurve"/>
      <point x="799" y="868"/>
      <point x="702" y="600" type="qcurve"/>
      <point x="612" y="354"/>
      <point x="563" y="262" type="qcurve"/>
      <point x="506" y="158"/>
      <point x="422" y="158" type="qcurve"/>
      <point x="193" y="158"/>
      <point x="193" y="297" type="qcurve"/>
      <point x="193" y="432"/>
      <point x="295" y="432" type="qcurve"/>
      <point x="311" y="432"/>
      <point x="319" y="428" type="qcurve"/>
      <point x="317" y="410"/>
      <point x="279" y="324" type="qcurve"/>
      <point x="293" y="238"/>
      <point x="397" y="238" type="qcurve"/>
      <point x="469" y="238"/>
      <point x="526" y="406" type="qcurve"/>
      <point x="541" y="442"/>
      <point x="616" y="733" type="qcurve"/>
      <point x="666" y="922"/>
      <point x="705" y="954" type="qcurve"/>
      <point x="729" y="973"/>
      <point x="754" y="973" type="qcurve"/>
      <point x="799" y="973"/>
    </contour>
  </outline>
</glyph>
<glyph name="K" format="2">
  <advance width="930"/>
  <unicode hex="004B"/>
  <outline>
    <contour>
      <point x="952" y="918" type="qcurve"/>
      <point x="952" y="897"/>
      <point x="891" y="813" type="qcurve"/>
      <point x="705" y="553"/>
      <point x="528" y="500" type="qcurve"/>
      <point x="571" y="451"/>
      <point x="655" y="336" type="qcurve"/>
      <point x="756" y="199"/>
      <point x="756" y="174" type="qcurve"/>
      <point x="756" y="141"/>
      <point x="719" y="141" type="qcurve"/>
      <point x="668" y="141"/>
      <point x="578" y="272" type="qcurve"/>
      <point x="471" y="428"/>
      <point x="449" y="446" type="qcurve"/>
      <point x="426" y="418"/>
      <point x="338" y="172"/>
      <point x="332" y="166" type="qcurve"/>
      <point x="315" y="152"/>
      <point x="299" y="152" type="qcurve"/>
      <point x="244" y="152"/>
      <point x="244" y="180" type="qcurve"/>
      <point x="244" y="238"/>
      <point x="281" y="324" type="qcurve"/>
      <point x="299" y="371"/>
      <point x="340" y="463" type="qcurve"/>
      <point x="291" y="483"/>
      <point x="291" y="504" type="qcurve"/>
      <point x="291" y="565"/>
      <point x="367" y="557" type="qcurve"/>
      <point x="395" y="688"/>
      <point x="414" y="764" type="qcurve"/>
      <point x="440" y="862"/>
      <point x="451" y="885" type="qcurve"/>
      <point x="485" y="971"/>
      <point x="532" y="971" type="qcurve"/>
      <point x="575" y="971"/>
      <point x="575" y="934" type="qcurve"/>
      <point x="575" y="877"/>
      <point x="537" y="760" type="qcurve"/>
      <point x="485" y="610"/>
      <point x="477" y="580" type="qcurve"/>
      <point x="709" y="649"/>
      <point x="829" y="911" type="qcurve"/>
      <point x="840" y="932"/>
      <point x="856" y="956" type="qcurve"/>
      <point x="872" y="975"/>
      <point x="895" y="975" type="qcurve"/>
      <point x="952" y="975"/>
    </contour>
  </outline>
</glyph>
<glyph name="L" format="2">
  <advance width="801"/>
  <unicode hex="004C"/>
  <outline>
    <contour>
      <point x="688" y="233" type="qcurve"/>
      <point x="688" y="213"/>
      <point x="621" y="172"/>
      <point x="598" y="172" type="qcurve"/>
      <point x="291" y="172" type="line"/>
      <point x="193" y="172"/>
      <point x="193" y="233" type="qcurve"/>
      <point x="193" y="244"/>
      <point x="236" y="352" type="qcurve"/>
      <point x="262" y="422"/>
      <point x="332" y="631" type="qcurve"/>
      <point x="389" y="809"/>
      <point x="434" y="907" type="qcurve"/>
      <point x="469" y="981"/>
      <point x="506" y="981" type="qcurve"/>
      <point x="565" y="981"/>
      <point x="565" y="952" type="qcurve"/>
      <point x="565" y="901"/>
      <point x="514" y="776" type="qcurve"/>
      <point x="475" y="688"/>
      <point x="399" y="512" type="qcurve"/>
      <point x="319" y="324"/>
      <point x="319" y="254" type="qcurve"/>
      <point x="319" y="248" type="line"/>
      <point x="352" y="248" type="line"/>
      <point x="403" y="248"/>
      <point x="604" y="283"/>
      <point x="653" y="283" type="qcurve"/>
      <point x="688" y="283"/>
    </contour>
  </outline>
</glyph>
<glyph name="M" format="2">
  <advance width="1217"/>
  <unicode hex="004D"/>
  <outline>
    <contour>
      <point x="1171" y="897" type="qcurve"/>
      <point x="1171" y="739"/>
      <point x="1122" y="569" type="qcurve"/>
      <point x="1022" y="219"/>
      <point x="987" y="184" type="qcurve"/>
      <point x="963" y="158"/>
      <point x="944" y="158" type="qcurve"/>
      <point x="879" y="158"/>
      <point x="879" y="182" type="qcurve"/>
      <point x="879" y="225"/>
      <point x="944" y="358" type="qcurve"/>
      <point x="1063" y="664"/>
      <point x="1063" y="852" type="qcurve"/>
      <point x="936" y="575"/>
      <point x="760" y="463" type="qcurve"/>
      <point x="725" y="438"/>
      <point x="711" y="438" type="qcurve"/>
      <point x="674" y="438"/>
      <point x="649" y="518" type="qcurve"/>
      <point x="633" y="569"/>
      <point x="592" y="698" type="qcurve"/>
      <point x="586" y="715"/>
      <point x="547" y="809" type="qcurve"/>
      <point x="528" y="745"/>
      <point x="440" y="471" type="qcurve"/>
      <point x="346" y="180"/>
      <point x="338" y="176" type="qcurve"/>
      <point x="326" y="166"/>
      <point x="295" y="166" type="qcurve"/>
      <point x="246" y="166"/>
      <point x="246" y="215" type="qcurve"/>
      <point x="246" y="264"/>
      <point x="272" y="328" type="qcurve"/>
      <point x="289" y="362"/>
      <point x="317" y="436" type="qcurve"/>
      <point x="348" y="537"/>
      <point x="416" y="735" type="qcurve"/>
      <point x="500" y="969"/>
      <point x="565" y="969" type="qcurve"/>
      <point x="647" y="969"/>
      <point x="647" y="922" type="qcurve"/>
      <point x="647" y="913"/>
      <point x="639" y="889"/>
      <point x="639" y="883" type="qcurve"/>
      <point x="639" y="868"/>
      <point x="662" y="829"/>
      <point x="664" y="821" type="qcurve"/>
      <point x="668" y="793"/>
      <point x="682" y="719" type="qcurve"/>
      <point x="682" y="711"/>
      <point x="737" y="553" type="qcurve"/>
      <point x="793" y="604"/>
      <point x="889" y="715" type="qcurve"/>
      <point x="920" y="758"/>
      <point x="963" y="834" type="qcurve"/>
      <point x="1016" y="926" type="line"/>
      <point x="1057" y="983"/>
      <point x="1100" y="983" type="qcurve"/>
      <point x="1171" y="983"/>
    </contour>
  </outline>
</glyph>
<glyph name="R" format="2">
  <advance width="901"/>
  <unicode hex="0052"/>
  <outline>
    <contour>
      <point x="877" y="772" type="qcurve"/>
      <point x="877" y="649"/>
      <point x="766" y="567" type="qcurve"/>
      <point x="674" y="500"/>
      <point x="541" y="473" type="qcurve"/>
      <point x="573" y="412"/>
      <point x="649" y="322" type="qcurve"/>
      <point x="741" y="215"/>
      <point x="766" y="176" type="qcurve"/>
      <point x="766" y="158"/>
      <point x="713" y="135"/>
      <point x="692" y="135" type="qcurve"/>
      <point x="668" y="135"/>
      <point x="614" y="215" type="qcurve"/>
      <point x="580" y="268"/>
      <point x="565" y="283" type="qcurve"/>
      <point x="481" y="379" type="line"/>
      <point x="436" y="432"/>
      <point x="408" y="483" type="qcurve"/>
      <point x="356" y="373"/>
      <point x="338" y="311" type="qcurve"/>
      <point x="330" y="258"/>
      <point x="315" y="195" type="qcurve"/>
      <point x="307" y="164"/>
      <point x="258" y="164" type="qcurve"/>
      <point x="199" y="164"/>
      <point x="199" y="188" type="qcurve"/>
      <point x="199" y="244"/>
      <point x="315" y="541" type="qcurve"/>
      <point x="395" y="745"/>
      <point x="469" y="913" type="qcurve"/>
      <point x="362" y="795"/>
      <point x="350" y="795" type="qcurve"/>
      <point x="311" y="795"/>
      <point x="311" y="846" type="qcurve"/>
      <point x="311" y="979"/>
      <point x="588" y="979" type="qcurve"/>
      <point x="877" y="979"/>
    </contour>
    <contour>
      <point x="774" y="764" type="qcurve"/>
      <point x="774" y="825"/>
      <point x="715" y="862" type="qcurve"/>
      <point x="662" y="893"/>
      <point x="596" y="893" type="qcurve"/>
      <point x="555" y="893"/>
      <point x="463" y="872" type="qcurve"/>
      <point x="539" y="842"/>
      <point x="539" y="827" type="qcurve"/>
      <point x="539" y="801"/>
      <point x="485" y="686" type="qcurve"/>
      <point x="442" y="594"/>
      <point x="422" y="467" type="qcurve"/>
      <point x="457" y="512"/>
      <point x="530" y="561" type="qcurve"/>
      <point x="623" y="567"/>
      <point x="692" y="618" type="qcurve"/>
      <point x="774" y="676"/>
    </contour>
  </outline>
</glyph>
<glyph name="S" format="2">
  <advance width="905"/>
  <unicode hex="0053"/>
  <outline>
    <contour>
      <point x="901" y="930" type="qcurve"/>
      <point x="901" y="870"/>
      <point x="870" y="825" type="qcurve"/>
      <point x="836" y="774"/>
      <point x="778" y="774" type="qcurve"/>
      <point x="754" y="774"/>
      <point x="754" y="791" type="qcurve"/>
      <point x="754" y="811"/>
      <point x="791" y="897"/>
      <point x="793" y="913" type="qcurve"/>
      <point x="737" y="877" type="line"/>
      <point x="670" y="868"/>
      <point x="584" y="823" type="qcurve"/>
      <point x="479" y="768"/>
      <point x="479" y="713" type="qcurve"/>
      <point x="479" y="680"/>
      <point x="557" y="633" type="qcurve"/>
      <point x="555" y="641" type="line"/>
      <point x="653" y="586"/>
      <point x="686" y="561" type="qcurve"/>
      <point x="762" y="502"/>
      <point x="762" y="436" type="qcurve"/>
      <point x="762" y="307"/>
      <point x="629" y="227" type="qcurve"/>
      <point x="514" y="156"/>
      <point x="379" y="156" type="qcurve"/>
      <point x="307" y="156"/>
      <point x="260" y="190" type="qcurve"/>
      <point x="207" y="229"/>
      <point x="207" y="299" type="qcurve"/>
      <point x="207" y="328"/>
      <point x="250" y="371"/>
      <point x="279" y="371" type="qcurve"/>
      <point x="322" y="371"/>
      <point x="322" y="340" type="qcurve"/>
      <point x="322" y="330"/>
      <point x="313" y="295"/>
      <point x="313" y="285" type="qcurve"/>
      <point x="313" y="225"/>
      <point x="385" y="225" type="qcurve"/>
      <point x="461" y="225"/>
      <point x="643" y="342"/>
      <point x="643" y="414" type="qcurve"/>
      <point x="643" y="473"/>
      <point x="565" y="518" type="qcurve"/>
      <point x="518" y="543"/>
      <point x="424" y="594" type="qcurve"/>
      <point x="348" y="637"/>
      <point x="348" y="692" type="qcurve"/>
      <point x="348" y="711"/>
      <point x="367" y="756" type="qcurve"/>
      <point x="403" y="846"/>
      <point x="561" y="918" type="qcurve"/>
      <point x="700" y="981"/>
      <point x="813" y="981" type="qcurve"/>
      <point x="901" y="981"/>
    </contour>
  </outline>
</glyph>
<glyph name="U" format="2">
  <advance width="942"/>
  <unicode hex="0055"/>
  <outline>
    <contour>
      <point x="965" y="936" type="qcurve"/>
      <point x="965" y="885"/>
      <point x="774" y="360"/>
      <point x="737" y="301" type="qcurve"/>
      <point x="649" y="156"/>
      <point x="475" y="156" type="qcurve"/>
      <point x="260" y="156"/>
      <point x="260" y="315" type="qcurve"/>
      <point x="260" y="424"/>
      <point x="322" y="625" type="qcurve"/>
      <point x="377" y="809"/>
      <point x="436" y="922" type="qcurve"/>
      <point x="465" y="977"/>
      <point x="504" y="977" type="qcurve"/>
      <point x="553" y="977"/>
      <point x="553" y="938" type="qcurve"/>
      <point x="553" y="899"/>
      <point x="514" y="813" type="qcurve"/>
      <point x="496" y="770"/>
      <point x="457" y="684" type="qcurve"/>
      <point x="365" y="455"/>
      <point x="365" y="313" type="qcurve"/>
      <point x="365" y="279"/>
      <point x="410" y="254" type="qcurve"/>
      <point x="449" y="233"/>
      <point x="485" y="233" type="qcurve"/>
      <point x="547" y="233"/>
      <point x="600" y="283" type="qcurve"/>
      <point x="633" y="309"/>
      <point x="715" y="541" type="qcurve"/>
      <point x="786" y="743"/>
      <point x="809" y="831" type="qcurve"/>
      <point x="819" y="883"/>
      <point x="850" y="956" type="qcurve"/>
      <point x="870" y="977"/>
      <point x="895" y="977" type="qcurve"/>
      <point x="915" y="977"/>
      <point x="965" y="954"/>
    </contour>
  </outline>
</glyph>
<glyph name="W" format="2">
  <advance width="1194"/>
  <unicode hex="0057"/>
  <outline>
    <contour>
      <point x="1231" y="952" type="qcurve"/>
      <point x="1231" y="926"/>
      <point x="891" y="219"/>
      <point x="838" y="170"/>
      <point x="815" y="170" type="qcurve"/>
      <point x="782" y="170"/>
      <point x="774" y="205" type="qcurve"/>
      <point x="772" y="219"/>
      <point x="772" y="266" type="qcurve"/>
      <point x="758" y="266" type="line"/>
      <point x="768" y="262" type="line"/>
      <point x="772" y="264" type="line"/>
      <point x="774" y="279"/>
      <point x="764" y="283" type="qcurve"/>
      <point x="758" y="268" type="line"/>
      <point x="772" y="268" type="line"/>
      <point x="772" y="428"/>
      <point x="778" y="745" type="qcurve"/>
      <point x="731" y="637"/>
      <point x="635" y="418" type="qcurve"/>
      <point x="516" y="170"/>
      <point x="438" y="170" type="qcurve"/>
      <point x="387" y="170"/>
      <point x="387" y="274" type="qcurve"/>
      <point x="387" y="649"/>
      <point x="438" y="920" type="qcurve"/>
      <point x="449" y="979"/>
      <point x="487" y="979" type="qcurve"/>
      <point x="555" y="979"/>
      <point x="555" y="942" type="qcurve"/>
      <point x="555" y="887"/>
      <point x="532" y="745" type="qcurve"/>
      <point x="506" y="573"/>
      <point x="502" y="537" type="qcurve"/>
      <point x="477" y="291" type="line"/>
      <point x="559" y="483"/>
      <point x="602" y="575" type="qcurve"/>
      <point x="702" y="791"/>
      <point x="737" y="819" type="qcurve"/>
      <point x="766" y="844"/>
      <point x="797" y="844" type="qcurve"/>
      <point x="838" y="844"/>
      <point x="852" y="821" type="qcurve"/>
      <point x="860" y="807"/>
      <point x="860" y="762" type="qcurve"/>
      <point x="860" y="508"/>
      <point x="848" y="330" type="qcurve"/>
      <point x="899" y="430"/>
      <point x="975" y="625" type="qcurve"/>
      <point x="1036" y="784"/>
      <point x="1126" y="975" type="qcurve"/>
      <point x="1145" y="995"/>
      <point x="1180" y="995" type="qcurve"/>
      <point x="1231" y="995"/>
    </contour>
  </outline>
</glyph>
<glyph name="Z" format="2">
  <advance width="862"/>
  <unicode hex="005A"/>
  <outline>
    <contour>
      <point x="877" y="897" type="line"/>
      <point x="877" y="866"/>
      <point x="606" y="594" type="qcurve"/>
      <point x="297" y="285"/>
      <point x="268" y="250" type="qcurve"/>
      <point x="389" y="260"/>
      <point x="629" y="276" type="qcurve"/>
      <point x="629" y="291" type="line"/>
      <point x="692" y="252"/>
      <point x="692" y="240" type="qcurve"/>
      <point x="692" y="170"/>
      <point x="553" y="170" type="qcurve"/>
      <point x="514" y="170"/>
      <point x="514" y="170" type="qcurve"/>
      <point x="504" y="170"/>
      <point x="494" y="172" type="qcurve"/>
      <point x="483" y="172"/>
      <point x="481" y="172" type="qcurve"/>
      <point x="444" y="172"/>
      <point x="293" y="166"/>
      <point x="254" y="166" type="qcurve"/>
      <point x="158" y="166"/>
      <point x="158" y="246" type="qcurve"/>
      <point x="158" y="276"/>
      <point x="428" y="545" type="qcurve"/>
      <point x="762" y="881" type="line"/>
      <point x="702" y="881"/>
      <point x="469" y="846"/>
      <point x="410" y="846" type="qcurve"/>
      <point x="377" y="846"/>
      <point x="377" y="909" type="qcurve"/>
      <point x="377" y="969"/>
      <point x="453" y="969" type="qcurve"/>
      <point x="797" y="969" type="line"/>
      <point x="877" y="969"/>
      <point x="877" y="911" type="qcurve"/>
    </contour>
  </outline>
</glyph>
<glyph name="backslash" format="2">
  <advance width="1012"/>
  <unicode hex="005C"/>
  <outline>
    <contour>
      <point x="868" y="-150" type="line"/>
      <point x="786" y="-182" type="line"/>
      <point x="264" y="1260" type="line"/>
      <point x="346" y="1286" type="line"/>
    </contour>
  </outline>
</glyph>
<glyph name="asciicircum" format="2">
  <advance width="735"/>
  <unicode hex="005E"/>
  <outline>
    <contour>
      <point x="772" y="862" type="qcurve"/>
      <point x="772" y="809"/>
      <point x="686" y="782" type="qcurve"/>
      <point x="700" y="772" type="line"/>
      <point x="700" y="786" type="line"/>
      <point x="674" y="797"/>
      <point x="641" y="879" type="qcurve"/>
      <point x="641" y="879"/>
      <point x="596" y="993" type="qcurve"/>
      <point x="567" y="1008"/>
      <point x="543" y="1051" type="qcurve"/>
      <point x="299" y="854"/>
      <point x="238" y="854" type="qcurve"/>
      <point x="203" y="854"/>
      <point x="203" y="909" type="qcurve"/>
      <point x="209" y="930" type="line"/>
      <point x="270" y="991"/>
      <point x="494" y="1135"/>
      <point x="578" y="1169" type="qcurve"/>
      <point x="588" y="1169" type="line"/>
      <point x="612" y="1169"/>
      <point x="772" y="899"/>
    </contour>
  </outline>
</glyph>
<glyph name="a" format="2">
  <advance width="764"/>
  <unicode hex="0061"/>
  <outline>
    <contour>
      <point x="670" y="819" type="qcurve"/>
      <point x="670" y="731"/>
      <point x="659" y="383"/>
      <point x="659" y="295" type="qcurve"/>
      <point x="659" y="223"/>
      <point x="594" y="223" type="qcurve"/>
      <point x="549" y="223"/>
      <point x="549" y="297" type="qcurve"/>
      <point x="549" y="401"/>
      <point x="573" y="455" type="qcurve"/>
      <point x="518" y="432"/>
      <point x="401" y="406" type="qcurve"/>
      <point x="391" y="406"/>
      <point x="322" y="406" type="qcurve"/>
      <point x="260" y="246"/>
      <point x="223" y="223"/>
      <point x="211" y="223" type="qcurve"/>
      <point x="168" y="223"/>
      <point x="168" y="258" type="qcurve"/>
      <point x="168" y="309"/>
      <point x="231" y="414" type="qcurve"/>
      <point x="199" y="424"/>
      <point x="199" y="434" type="qcurve"/>
      <point x="199" y="465"/>
      <point x="250" y="510"/>
      <point x="281" y="510" type="qcurve"/>
      <point x="330" y="588"/>
      <point x="430" y="743" type="qcurve"/>
      <point x="551" y="928"/>
      <point x="592" y="928" type="qcurve"/>
      <point x="670" y="928"/>
    </contour>
    <contour>
      <point x="602" y="778" type="qcurve"/>
      <point x="602" y="795"/>
      <point x="594" y="840" type="qcurve"/>
      <point x="444" y="659"/>
      <point x="360" y="485" type="qcurve"/>
      <point x="387" y="483"/>
      <point x="399" y="483" type="qcurve"/>
      <point x="430" y="483"/>
      <point x="481" y="496" type="qcurve"/>
      <point x="543" y="508"/>
      <point x="565" y="510" type="qcurve"/>
      <point x="602" y="633"/>
    </contour>
  </outline>
</glyph>
<glyph name="c" format="2">
  <advance width="809"/>
  <unicode hex="0063"/>
  <outline>
    <contour>
      <point x="797" y="803" type="qcurve"/>
      <point x="797" y="694"/>
      <point x="737" y="694" type="qcurve"/>
      <point x="694" y="694"/>
      <point x="686" y="721" type="qcurve"/>
      <point x="711" y="772"/>
      <point x="711" y="803" type="qcurve"/>
      <point x="711" y="852"/>
      <point x="657" y="852" type="qcurve"/>
      <point x="537" y="852"/>
      <point x="436" y="678" type="qcurve"/>
      <point x="346" y="522"/>
      <point x="346" y="391" type="qcurve"/>
      <point x="346" y="283"/>
      <point x="463" y="283" type="qcurve"/>
      <point x="522" y="283"/>
      <point x="559" y="328" type="qcurve"/>
      <point x="567" y="338"/>
      <point x="608" y="410" type="qcurve"/>
      <point x="633" y="453"/>
      <point x="662" y="453" type="qcurve"/>
      <point x="705" y="453"/>
      <point x="705" y="420" type="qcurve"/>
      <point x="705" y="379"/>
      <point x="602" y="256"/>
      <point x="520" y="215"/>
      <point x="481" y="215" type="qcurve"/>
      <point x="336" y="215"/>
      <point x="293" y="279" type="qcurve"/>
      <point x="258" y="328"/>
      <point x="258" y="412" type="qcurve"/>
      <point x="258" y="592"/>
      <point x="375" y="752" type="qcurve"/>
      <point x="500" y="928"/>
      <point x="674" y="928" type="qcurve"/>
      <point x="797" y="928"/>
    </contour>
  </outline>
</glyph>
<glyph name="d" format="2">
  <advance width="895"/>
  <unicode hex="0064"/>
  <outline>
    <contour>
      <point x="858" y="705" type="qcurve"/>
      <point x="858" y="623"/>
      <point x="813" y="477" type="qcurve"/>
      <point x="805" y="451"/>
      <point x="778" y="387" type="qcurve"/>
      <point x="700" y="217"/>
      <point x="360" y="217" type="qcurve"/>
      <point x="322" y="217"/>
      <point x="299" y="242"/>
      <point x="297" y="283" type="qcurve"/>
      <point x="297" y="322"/>
      <point x="297" y="356" type="qcurve"/>
      <point x="297" y="428"/>
      <point x="471" y="735"/>
      <point x="471" y="788" type="qcurve"/>
      <point x="471" y="811"/>
      <point x="440" y="821" type="qcurve"/>
      <point x="399" y="786"/>
      <point x="375" y="786" type="qcurve"/>
      <point x="340" y="786"/>
      <point x="340" y="811" type="qcurve"/>
      <point x="340" y="864"/>
      <point x="440" y="897" type="qcurve"/>
      <point x="518" y="924"/>
      <point x="586" y="924" type="qcurve"/>
      <point x="700" y="924"/>
      <point x="774" y="872" type="qcurve"/>
      <point x="858" y="813"/>
    </contour>
    <contour>
      <point x="766" y="705" type="qcurve"/>
      <point x="766" y="846"/>
      <point x="592" y="846" type="qcurve"/>
      <point x="563" y="846"/>
      <point x="506" y="829" type="qcurve"/>
      <point x="551" y="805"/>
      <point x="551" y="793" type="qcurve"/>
      <point x="551" y="721"/>
      <point x="471" y="575" type="qcurve"/>
      <point x="434" y="510"/>
      <point x="389" y="367" type="qcurve"/>
      <point x="379" y="338"/>
      <point x="379" y="326" type="qcurve"/>
      <point x="379" y="281"/>
      <point x="455" y="281" type="qcurve"/>
      <point x="487" y="281"/>
      <point x="555" y="309" type="qcurve"/>
      <point x="584" y="322"/>
      <point x="647" y="360" type="qcurve"/>
      <point x="700" y="403"/>
      <point x="735" y="520" type="qcurve"/>
      <point x="766" y="621"/>
    </contour>
  </outline>
</glyph>
<glyph name="e" format="2">
  <advance width="831"/>
  <unicode hex="0065"/>
  <outline>
    <contour>
      <point x="838" y="870" type="qcurve"/>
      <point x="838" y="817"/>
      <point x="786" y="817" type="qcurve"/>
      <point x="795" y="817"/>
      <point x="539" y="834" type="qcurve"/>
      <point x="565" y="797"/>
      <point x="565" y="786" type="qcurve"/>
      <point x="565" y="750"/>
      <point x="532" y="694" type="qcurve"/>
      <point x="492" y="623"/>
      <point x="483" y="606" type="qcurve"/>
      <point x="514" y="606"/>
      <point x="573" y="606" type="qcurve"/>
      <point x="631" y="608"/>
      <point x="662" y="608" type="qcurve"/>
      <point x="707" y="608"/>
      <point x="707" y="582" type="qcurve"/>
      <point x="707" y="535"/>
      <point x="651" y="528" type="qcurve"/>
      <point x="606" y="522"/>
      <point x="610" y="522" type="qcurve"/>
      <point x="592" y="522"/>
      <point x="455" y="526" type="qcurve"/>
      <point x="403" y="326" type="line"/>
      <point x="420" y="309"/>
      <point x="436" y="309" type="qcurve"/>
      <point x="469" y="309"/>
      <point x="596" y="313"/>
      <point x="629" y="313" type="qcurve"/>
      <point x="692" y="313"/>
      <point x="692" y="281" type="qcurve"/>
      <point x="692" y="238"/>
      <point x="643" y="227" type="qcurve"/>
      <point x="631" y="225"/>
      <point x="563" y="225" type="qcurve"/>
      <point x="375" y="225"/>
      <point x="344" y="240" type="qcurve"/>
      <point x="299" y="262"/>
      <point x="299" y="307" type="qcurve"/>
      <point x="299" y="324"/>
      <point x="326" y="408" type="qcurve"/>
      <point x="360" y="520" type="line"/>
      <point x="313" y="532"/>
      <point x="313" y="559" type="qcurve"/>
      <point x="313" y="610"/>
      <point x="381" y="608" type="qcurve"/>
      <point x="383" y="612"/>
      <point x="395" y="621" type="qcurve"/>
      <point x="416" y="637"/>
      <point x="483" y="827" type="qcurve"/>
      <point x="444" y="817"/>
      <point x="438" y="817" type="qcurve"/>
      <point x="416" y="817"/>
      <point x="416" y="836" type="qcurve"/>
      <point x="416" y="915"/>
      <point x="543" y="915" type="qcurve"/>
      <point x="598" y="915" type="line"/>
      <point x="827" y="915"/>
      <point x="834" y="895" type="qcurve"/>
      <point x="838" y="887"/>
    </contour>
  </outline>
</glyph>
<glyph name="f" format="2">
  <advance width="811"/>
  <unicode hex="0066"/>
  <outline>
    <contour>
      <point x="887" y="870" type="qcurve"/>
      <point x="887" y="836"/>
      <point x="842" y="825" type="qcurve"/>
      <point x="819" y="821"/>
      <point x="758" y="819" type="qcurve"/>
      <point x="713" y="819"/>
      <point x="645" y="819" type="qcurve"/>
      <point x="553" y="821" type="line"/>
      <point x="571" y="793"/>
      <point x="571" y="791" type="qcurve"/>
      <point x="571" y="784"/>
      <point x="539" y="688" type="qcurve"/>
      <point x="502" y="584"/>
      <point x="498" y="565" type="qcurve"/>
      <point x="526" y="565"/>
      <point x="584" y="565" type="qcurve"/>
      <point x="643" y="567"/>
      <point x="672" y="567" type="qcurve"/>
      <point x="721" y="567"/>
      <point x="721" y="537" type="qcurve"/>
      <point x="721" y="479"/>
      <point x="666" y="479" type="qcurve"/>
      <point x="641" y="479"/>
      <point x="539" y="483"/>
      <point x="514" y="483" type="qcurve"/>
      <point x="506" y="483"/>
      <point x="465" y="481" type="qcurve"/>
      <point x="438" y="414"/>
      <point x="399" y="276" type="qcurve"/>
      <point x="389" y="219"/>
      <point x="348" y="219" type="qcurve"/>
      <point x="295" y="219"/>
      <point x="295" y="252" type="qcurve"/>
      <point x="295" y="301"/>
      <point x="369" y="473" type="qcurve"/>
      <point x="338" y="481"/>
      <point x="338" y="494" type="qcurve"/>
      <point x="338" y="559"/>
      <point x="401" y="565" type="qcurve"/>
      <point x="426" y="664"/>
      <point x="492" y="815" type="qcurve"/>
      <point x="412" y="819"/>
      <point x="412" y="846" type="qcurve"/>
      <point x="412" y="913"/>
      <point x="506" y="913" type="qcurve"/>
      <point x="827" y="913" type="line"/>
      <point x="887" y="913"/>
    </contour>
  </outline>
</glyph>
<glyph name="g" format="2">
  <advance width="909"/>
  <unicode hex="0067"/>
  <outline>
    <contour>
      <point x="895" y="788" type="qcurve"/>
      <point x="895" y="760"/>
      <point x="852" y="694"/>
      <point x="823" y="694" type="qcurve"/>
      <point x="795" y="694"/>
      <point x="774" y="727" type="qcurve"/>
      <point x="805" y="780"/>
      <point x="805" y="788" type="qcurve"/>
      <point x="805" y="840"/>
      <point x="743" y="840" type="qcurve"/>
      <point x="653" y="840"/>
      <point x="616" y="829" type="qcurve"/>
      <point x="561" y="813"/>
      <point x="518" y="756" type="qcurve"/>
      <point x="381" y="569"/>
      <point x="381" y="418" type="qcurve"/>
      <point x="381" y="365"/>
      <point x="446" y="297"/>
      <point x="498" y="297" type="qcurve"/>
      <point x="541" y="297" type="line"/>
      <point x="606" y="297"/>
      <point x="651" y="365" type="qcurve"/>
      <point x="692" y="424"/>
      <point x="692" y="494" type="qcurve"/>
      <point x="643" y="479"/>
      <point x="592" y="479" type="qcurve"/>
      <point x="563" y="479"/>
      <point x="563" y="500" type="qcurve"/>
      <point x="563" y="543"/>
      <point x="633" y="555" type="qcurve"/>
      <point x="662" y="559"/>
      <point x="735" y="559" type="qcurve"/>
      <point x="836" y="559"/>
      <point x="836" y="522" type="qcurve"/>
      <point x="836" y="492"/>
      <point x="750" y="494" type="qcurve"/>
      <point x="778" y="461"/>
      <point x="778" y="451" type="qcurve"/>
      <point x="778" y="371"/>
      <point x="606" y="217"/>
      <point x="522" y="217" type="qcurve"/>
      <point x="436" y="217"/>
      <point x="367" y="264" type="qcurve"/>
      <point x="289" y="317"/>
      <point x="289" y="399" type="qcurve"/>
      <point x="289" y="539"/>
      <point x="428" y="811"/>
      <point x="541" y="885" type="qcurve"/>
      <point x="596" y="922"/>
      <point x="756" y="922" type="qcurve"/>
      <point x="895" y="922"/>
    </contour>
  </outline>
</glyph>
<glyph name="i" format="2">
  <advance width="512"/>
  <unicode hex="0069"/>
  <outline>
    <contour>
      <point x="532" y="879" type="qcurve"/>
      <point x="434" y="645" type="line"/>
      <point x="379" y="512"/>
      <point x="354" y="406" type="qcurve"/>
      <point x="348" y="367"/>
      <point x="309" y="209"/>
      <point x="264" y="209" type="qcurve"/>
      <point x="221" y="209"/>
      <point x="221" y="238" type="qcurve"/>
      <point x="221" y="326"/>
      <point x="313" y="600" type="qcurve"/>
      <point x="412" y="889"/>
      <point x="467" y="913" type="qcurve"/>
      <point x="475" y="918"/>
      <point x="494" y="918" type="qcurve"/>
      <point x="535" y="918"/>
    </contour>
  </outline>
</glyph>
<glyph name="j" format="2">
  <advance width="762"/>
  <unicode hex="006A"/>
  <outline>
    <contour>
      <point x="756" y="883" type="qcurve"/>
      <point x="756" y="825"/>
      <point x="672" y="594" type="qcurve"/>
      <point x="596" y="385"/>
      <point x="553" y="305" type="qcurve"/>
      <point x="504" y="215"/>
      <point x="432" y="215" type="qcurve"/>
      <point x="236" y="215"/>
      <point x="236" y="336" type="qcurve"/>
      <point x="236" y="451"/>
      <point x="324" y="451" type="qcurve"/>
      <point x="338" y="451"/>
      <point x="344" y="446" type="qcurve"/>
      <point x="344" y="432"/>
      <point x="309" y="358" type="qcurve"/>
      <point x="322" y="285"/>
      <point x="412" y="285" type="qcurve"/>
      <point x="473" y="285"/>
      <point x="522" y="428" type="qcurve"/>
      <point x="535" y="461"/>
      <point x="598" y="709" type="qcurve"/>
      <point x="641" y="870"/>
      <point x="676" y="899" type="qcurve"/>
      <point x="696" y="915"/>
      <point x="717" y="915" type="qcurve"/>
      <point x="756" y="915"/>
    </contour>
  </outline>
</glyph>
<glyph name="k" format="2">
  <advance width="883"/>
  <unicode hex="006B"/>
  <outline>
    <contour>
      <point x="901" y="866" type="qcurve"/>
      <point x="901" y="850"/>
      <point x="850" y="778" type="qcurve"/>
      <point x="688" y="553"/>
      <point x="539" y="508" type="qcurve"/>
      <point x="575" y="465"/>
      <point x="647" y="367" type="qcurve"/>
      <point x="733" y="250"/>
      <point x="733" y="227" type="qcurve"/>
      <point x="733" y="201"/>
      <point x="700" y="201" type="qcurve"/>
      <point x="657" y="201"/>
      <point x="582" y="313" type="qcurve"/>
      <point x="489" y="446"/>
      <point x="471" y="463" type="qcurve"/>
      <point x="451" y="436"/>
      <point x="375" y="227"/>
      <point x="369" y="221" type="qcurve"/>
      <point x="356" y="209"/>
      <point x="342" y="209" type="qcurve"/>
      <point x="295" y="209"/>
      <point x="295" y="233" type="qcurve"/>
      <point x="295" y="285"/>
      <point x="377" y="477" type="qcurve"/>
      <point x="336" y="496"/>
      <point x="336" y="512" type="qcurve"/>
      <point x="336" y="563"/>
      <point x="399" y="557" type="qcurve"/>
      <point x="424" y="670"/>
      <point x="440" y="735" type="qcurve"/>
      <point x="463" y="819"/>
      <point x="471" y="838" type="qcurve"/>
      <point x="502" y="911"/>
      <point x="541" y="911" type="qcurve"/>
      <point x="580" y="911"/>
      <point x="580" y="879" type="qcurve"/>
      <point x="580" y="831"/>
      <point x="545" y="731" type="qcurve"/>
      <point x="500" y="602"/>
      <point x="496" y="575" type="qcurve"/>
      <point x="694" y="637"/>
      <point x="797" y="860" type="qcurve"/>
      <point x="805" y="879"/>
      <point x="819" y="901" type="qcurve"/>
      <point x="834" y="915"/>
      <point x="852" y="915" type="qcurve"/>
      <point x="901" y="915"/>
    </contour>
  </outline>
</glyph>
<glyph name="m" format="2">
  <advance width="1145"/>
  <unicode hex="006D"/>
  <outline>
    <contour>
      <point x="1106" y="852" type="qcurve"/>
      <point x="1106" y="715"/>
      <point x="1063" y="569" type="qcurve"/>
      <point x="977" y="270"/>
      <point x="948" y="240" type="qcurve"/>
      <point x="928" y="217"/>
      <point x="909" y="217" type="qcurve"/>
      <point x="854" y="217"/>
      <point x="854" y="238" type="qcurve"/>
      <point x="854" y="274"/>
      <point x="911" y="387" type="qcurve"/>
      <point x="1012" y="651"/>
      <point x="1012" y="811" type="qcurve"/>
      <point x="905" y="575"/>
      <point x="754" y="477" type="qcurve"/>
      <point x="723" y="459"/>
      <point x="711" y="459" type="qcurve"/>
      <point x="678" y="459"/>
      <point x="657" y="526" type="qcurve"/>
      <point x="645" y="569"/>
      <point x="608" y="680" type="qcurve"/>
      <point x="604" y="694"/>
      <point x="569" y="774" type="qcurve"/>
      <point x="555" y="719"/>
      <point x="479" y="485" type="qcurve"/>
      <point x="399" y="236"/>
      <point x="379" y="225"/>
      <point x="354" y="225" type="qcurve"/>
      <point x="311" y="225"/>
      <point x="311" y="266" type="qcurve"/>
      <point x="311" y="307"/>
      <point x="334" y="362" type="qcurve"/>
      <point x="348" y="393"/>
      <point x="373" y="455" type="qcurve"/>
      <point x="399" y="541"/>
      <point x="459" y="711" type="qcurve"/>
      <point x="530" y="911"/>
      <point x="586" y="911" type="qcurve"/>
      <point x="655" y="911"/>
      <point x="655" y="870" type="qcurve"/>
      <point x="655" y="864"/>
      <point x="649" y="842"/>
      <point x="649" y="838" type="qcurve"/>
      <point x="649" y="825"/>
      <point x="668" y="793"/>
      <point x="670" y="786" type="qcurve"/>
      <point x="674" y="762"/>
      <point x="686" y="698" type="qcurve"/>
      <point x="686" y="692"/>
      <point x="733" y="557" type="qcurve"/>
      <point x="780" y="598"/>
      <point x="864" y="694" type="qcurve"/>
      <point x="889" y="731"/>
      <point x="926" y="797" type="qcurve"/>
      <point x="973" y="877" type="line"/>
      <point x="1008" y="924"/>
      <point x="1044" y="924" type="qcurve"/>
      <point x="1106" y="924"/>
    </contour>
  </outline>
</glyph>
<glyph name="p" format="2">
  <advance width="848"/>
  <unicode hex="0070"/>
  <outline>
    <contour>
      <point x="844" y="743" type="qcurve"/>
      <point x="844" y="477"/>
      <point x="426" y="430" type="qcurve"/>
      <point x="377" y="236"/>
      <point x="336" y="211"/>
      <point x="317" y="211" type="qcurve"/>
      <point x="276" y="211"/>
      <point x="276" y="244" type="qcurve"/>
      <point x="276" y="274"/>
      <point x="305" y="338" type="qcurve"/>
      <point x="338" y="412"/>
      <point x="344" y="432" type="qcurve"/>
      <point x="311" y="449"/>
      <point x="311" y="473" type="qcurve"/>
      <point x="311" y="526"/>
      <point x="371" y="532" type="qcurve"/>
      <point x="426" y="674" type="line"/>
      <point x="453" y="750"/>
      <point x="461" y="821" type="qcurve"/>
      <point x="426" y="807"/>
      <point x="377" y="788" type="qcurve"/>
      <point x="352" y="791"/>
      <point x="352" y="813" type="qcurve"/>
      <point x="352" y="866"/>
      <point x="455" y="897" type="qcurve"/>
      <point x="524" y="918"/>
      <point x="600" y="918" type="qcurve"/>
      <point x="698" y="918"/>
      <point x="764" y="881" type="qcurve"/>
      <point x="844" y="836"/>
    </contour>
    <contour>
      <point x="762" y="729" type="qcurve"/>
      <point x="762" y="782"/>
      <point x="670" y="840"/>
      <point x="614" y="840" type="qcurve"/>
      <point x="586" y="840"/>
      <point x="512" y="829" type="qcurve"/>
      <point x="549" y="788"/>
      <point x="549" y="782" type="qcurve"/>
      <point x="549" y="745"/>
      <point x="469" y="594"/>
      <point x="469" y="553" type="qcurve"/>
      <point x="469" y="545"/>
      <point x="473" y="510" type="qcurve"/>
      <point x="575" y="518"/>
      <point x="659" y="571" type="qcurve"/>
      <point x="762" y="637"/>
    </contour>
  </outline>
</glyph>
<glyph name="q" format="2">
  <advance width="920"/>
  <unicode hex="0071"/>
  <outline>
    <contour>
      <point x="889" y="723" type="qcurve"/>
      <point x="889" y="444"/>
      <point x="659" y="244" type="qcurve"/>
      <point x="705" y="168"/>
      <point x="705" y="160" type="qcurve"/>
      <point x="705" y="121"/>
      <point x="637" y="121" type="qcurve"/>
      <point x="616" y="121"/>
      <point x="598" y="152" type="qcurve"/>
      <point x="584" y="176"/>
      <point x="569" y="201" type="qcurve"/>
      <point x="524" y="186"/>
      <point x="508" y="186" type="qcurve"/>
      <point x="422" y="186"/>
      <point x="309" y="301"/>
      <point x="309" y="385" type="qcurve"/>
      <point x="309" y="485"/>
      <point x="338" y="559" type="qcurve"/>
      <point x="365" y="625"/>
      <point x="428" y="711" type="qcurve"/>
      <point x="535" y="852"/>
      <point x="702" y="897" type="qcurve"/>
      <point x="731" y="903"/>
      <point x="743" y="903" type="qcurve"/>
      <point x="782" y="903"/>
      <point x="782" y="883" type="qcurve"/>
      <point x="782" y="872"/>
      <point x="766" y="842" type="qcurve"/>
      <point x="807" y="844"/>
      <point x="813" y="844" type="qcurve"/>
      <point x="864" y="844"/>
      <point x="881" y="805" type="qcurve"/>
      <point x="889" y="784"/>
    </contour>
    <contour>
      <point x="793" y="721" type="qcurve"/>
      <point x="793" y="799"/>
      <point x="748" y="834" type="qcurve"/>
      <point x="606" y="805"/>
      <point x="506" y="668" type="qcurve"/>
      <point x="414" y="535"/>
      <point x="414" y="387" type="qcurve"/>
      <point x="414" y="274"/>
      <point x="496" y="262" type="qcurve"/>
      <point x="530" y="270" type="line"/>
      <point x="504" y="305"/>
      <point x="496" y="330" type="qcurve"/>
      <point x="510" y="369"/>
      <point x="563" y="369" type="qcurve"/>
      <point x="592" y="369"/>
      <point x="606" y="301" type="qcurve"/>
      <point x="684" y="377"/>
      <point x="793" y="614"/>
    </contour>
  </outline>
</glyph>
<glyph name="s" format="2">
  <advance width="854"/>
  <unicode hex="0073"/>
  <outline>
    <contour>
      <point x="850" y="879" type="qcurve"/>
      <point x="850" y="827"/>
      <point x="825" y="788" type="qcurve"/>
      <point x="795" y="745"/>
      <point x="745" y="745" type="qcurve"/>
      <point x="725" y="745"/>
      <point x="725" y="758" type="qcurve"/>
      <point x="725" y="776"/>
      <point x="756" y="850"/>
      <point x="758" y="864" type="qcurve"/>
      <point x="713" y="834" type="line"/>
      <point x="653" y="825"/>
      <point x="580" y="786" type="qcurve"/>
      <point x="492" y="739"/>
      <point x="492" y="692" type="qcurve"/>
      <point x="492" y="664"/>
      <point x="555" y="625" type="qcurve"/>
      <point x="555" y="631" type="line"/>
      <point x="639" y="584"/>
      <point x="668" y="561" type="qcurve"/>
      <point x="733" y="512"/>
      <point x="733" y="455" type="qcurve"/>
      <point x="733" y="346"/>
      <point x="618" y="274" type="qcurve"/>
      <point x="520" y="215"/>
      <point x="403" y="215" type="qcurve"/>
      <point x="342" y="215"/>
      <point x="258" y="279"/>
      <point x="258" y="338" type="qcurve"/>
      <point x="258" y="397"/>
      <point x="319" y="397" type="qcurve"/>
      <point x="354" y="397"/>
      <point x="354" y="373" type="qcurve"/>
      <point x="354" y="365"/>
      <point x="346" y="334"/>
      <point x="346" y="326" type="qcurve"/>
      <point x="346" y="274"/>
      <point x="408" y="274" type="qcurve"/>
      <point x="475" y="274"/>
      <point x="549" y="322" type="qcurve"/>
      <point x="631" y="375"/>
      <point x="631" y="436" type="qcurve"/>
      <point x="631" y="485"/>
      <point x="565" y="524" type="qcurve"/>
      <point x="524" y="547"/>
      <point x="442" y="590" type="qcurve"/>
      <point x="377" y="627"/>
      <point x="377" y="674" type="qcurve"/>
      <point x="377" y="690"/>
      <point x="393" y="729" type="qcurve"/>
      <point x="426" y="807"/>
      <point x="559" y="866" type="qcurve"/>
      <point x="680" y="922"/>
      <point x="776" y="922" type="qcurve"/>
      <point x="850" y="922"/>
    </contour>
  </outline>
</glyph>
<glyph name="t" format="2">
  <advance width="885"/>
  <unicode hex="0074"/>
  <outline>
    <contour>
      <point x="946" y="866" type="qcurve"/>
      <point x="946" y="825"/>
      <point x="870" y="825" type="qcurve"/>
      <point x="780" y="825"/>
      <point x="649" y="836" type="qcurve"/>
      <point x="725" y="793"/>
      <point x="725" y="786" type="qcurve"/>
      <point x="725" y="772"/>
      <point x="653" y="578" type="qcurve"/>
      <point x="612" y="467"/>
      <point x="567" y="334" type="qcurve"/>
      <point x="563" y="317"/>
      <point x="541" y="209"/>
      <point x="514" y="209" type="qcurve"/>
      <point x="444" y="209"/>
      <point x="444" y="236" type="qcurve"/>
      <point x="444" y="276"/>
      <point x="535" y="518" type="qcurve"/>
      <point x="553" y="571"/>
      <point x="639" y="829" type="qcurve"/>
      <point x="602" y="829"/>
      <point x="457" y="825"/>
      <point x="420" y="825" type="qcurve"/>
      <point x="389" y="825"/>
      <point x="389" y="854" type="qcurve"/>
      <point x="389" y="874"/>
      <point x="408" y="901" type="qcurve"/>
      <point x="416" y="911"/>
      <point x="524" y="911" type="qcurve"/>
      <point x="514" y="911"/>
      <point x="600" y="909" type="qcurve"/>
      <point x="700" y="909"/>
      <point x="831" y="909" type="qcurve"/>
      <point x="946" y="907"/>
    </contour>
  </outline>
</glyph>
<glyph name="v" format="2">
  <advance width="915"/>
  <unicode hex="0076"/>
  <outline>
    <contour>
      <point x="958" y="887" type="qcurve"/>
      <point x="958" y="860"/>
      <point x="578" y="297"/>
      <point x="535" y="252" type="qcurve"/>
      <point x="504" y="221"/>
      <point x="475" y="221" type="qcurve"/>
      <point x="414" y="221"/>
      <point x="414" y="332" type="qcurve"/>
      <point x="414" y="860"/>
      <point x="455" y="903" type="qcurve"/>
      <point x="467" y="915"/>
      <point x="479" y="915" type="qcurve"/>
      <point x="541" y="915"/>
      <point x="541" y="872" type="qcurve"/>
      <point x="541" y="858"/>
      <point x="518" y="702" type="qcurve"/>
      <point x="504" y="606"/>
      <point x="504" y="530" type="qcurve"/>
      <point x="504" y="496"/>
      <point x="508" y="362"/>
      <point x="508" y="328" type="qcurve"/>
      <point x="551" y="408"/>
      <point x="618" y="510" type="qcurve"/>
      <point x="694" y="625"/>
      <point x="772" y="754"/>
      <point x="877" y="924" type="qcurve"/>
      <point x="887" y="930"/>
      <point x="899" y="930" type="qcurve"/>
      <point x="958" y="930"/>
    </contour>
  </outline>
</glyph>
<glyph name="x" format="2">
  <advance width="844"/>
  <unicode hex="0078"/>
  <outline>
    <contour>
      <point x="874" y="877" type="qcurve"/>
      <point x="874" y="848"/>
      <point x="752" y="727" type="qcurve"/>
      <point x="733" y="707"/>
      <point x="684" y="655" type="qcurve"/>
      <point x="657" y="629"/>
      <point x="592" y="557" type="qcurve"/>
      <point x="627" y="444"/>
      <point x="674" y="315" type="qcurve"/>
      <point x="692" y="270"/>
      <point x="692" y="250" type="qcurve"/>
      <point x="692" y="207"/>
      <point x="647" y="207" type="qcurve"/>
      <point x="590" y="207"/>
      <point x="571" y="322" type="qcurve"/>
      <point x="561" y="383"/>
      <point x="520" y="481" type="qcurve"/>
      <point x="512" y="473"/>
      <point x="395" y="336" type="qcurve"/>
      <point x="301" y="225"/>
      <point x="266" y="225" type="qcurve"/>
      <point x="254" y="225"/>
      <point x="207" y="248"/>
      <point x="207" y="260" type="qcurve"/>
      <point x="207" y="268"/>
      <point x="242" y="297" type="qcurve"/>
      <point x="252" y="307"/>
      <point x="285" y="336" type="qcurve"/>
      <point x="350" y="418"/>
      <point x="489" y="578" type="qcurve"/>
      <point x="457" y="684"/>
      <point x="383" y="819" type="qcurve"/>
      <point x="354" y="872"/>
      <point x="354" y="889" type="qcurve"/>
      <point x="354" y="918"/>
      <point x="403" y="918" type="qcurve"/>
      <point x="453" y="918"/>
      <point x="477" y="862" type="qcurve"/>
      <point x="512" y="766" type="line"/>
      <point x="520" y="752"/>
      <point x="530" y="700" type="qcurve"/>
      <point x="539" y="659"/>
      <point x="561" y="635" type="qcurve"/>
      <point x="596" y="692"/>
      <point x="690" y="797" type="qcurve"/>
      <point x="801" y="915"/>
      <point x="844" y="915" type="qcurve"/>
      <point x="874" y="915"/>
    </contour>
  </outline>
</glyph>
<glyph name="z" format="2">
  <advance width="813"/>
  <unicode hex="007A"/>
  <outline>
    <contour>
      <point x="825" y="850" type="line"/>
      <point x="825" y="823"/>
      <point x="592" y="590" type="qcurve"/>
      <point x="328" y="326"/>
      <point x="303" y="295" type="qcurve"/>
      <point x="408" y="303"/>
      <point x="614" y="317" type="qcurve"/>
      <point x="614" y="330" type="line"/>
      <point x="666" y="297"/>
      <point x="666" y="287" type="qcurve"/>
      <point x="666" y="227"/>
      <point x="547" y="227" type="qcurve"/>
      <point x="514" y="227"/>
      <point x="514" y="227" type="qcurve"/>
      <point x="473" y="227"/>
      <point x="487" y="227" type="qcurve"/>
      <point x="455" y="227"/>
      <point x="324" y="223"/>
      <point x="291" y="223" type="qcurve"/>
      <point x="209" y="223"/>
      <point x="209" y="293" type="qcurve"/>
      <point x="209" y="317"/>
      <point x="440" y="549" type="qcurve"/>
      <point x="727" y="836" type="line"/>
      <point x="676" y="836"/>
      <point x="475" y="807"/>
      <point x="426" y="807" type="qcurve"/>
      <point x="395" y="807"/>
      <point x="395" y="860" type="qcurve"/>
      <point x="395" y="911"/>
      <point x="461" y="911" type="qcurve"/>
      <point x="756" y="911" type="line"/>
      <point x="825" y="911"/>
      <point x="825" y="862" type="qcurve"/>
    </contour>
  </outline>
</glyph>
<glyph name="currency" format="2">
  <advance width="1139"/>
  <unicode hex="00A4"/>
  <outline>
    <contour>
      <point x="1130" y="1196" type="line"/>
      <point x="958" y="1057" type="line"/>
      <point x="993" y="973"/>
      <point x="993" y="889" type="qcurve"/>
      <point x="993" y="723"/>
      <point x="852" y="559" type="qcurve"/>
      <point x="967" y="420" type="line"/>
      <point x="854" y="326" type="line"/>
      <point x="743" y="469" type="line"/>
      <point x="606" y="387"/>
      <point x="475" y="387" type="qcurve"/>
      <point x="344" y="387"/>
      <point x="244" y="469" type="qcurve"/>
      <point x="70" y="326" type="line"/>
      <point x="0" y="420" type="line"/>
      <point x="172" y="559" type="line"/>
      <point x="137" y="641"/>
      <point x="137" y="725" type="qcurve"/>
      <point x="137" y="891"/>
      <point x="279" y="1057" type="qcurve"/>
      <point x="164" y="1196" type="line"/>
      <point x="274" y="1288" type="line"/>
      <point x="387" y="1147" type="line"/>
      <point x="524" y="1229"/>
      <point x="655" y="1229" type="qcurve"/>
      <point x="786" y="1229"/>
      <point x="887" y="1147" type="qcurve"/>
      <point x="1059" y="1288" type="line"/>
    </contour>
    <contour>
      <point x="864" y="872" type="qcurve"/>
      <point x="864" y="975"/>
      <point x="727" y="1100"/>
      <point x="625" y="1100" type="qcurve"/>
      <point x="504" y="1100"/>
      <point x="297" y="928"/>
      <point x="272" y="809" type="qcurve"/>
      <point x="266" y="780"/>
      <point x="266" y="745" type="qcurve"/>
      <point x="266" y="641"/>
      <point x="397" y="516"/>
      <point x="502" y="516" type="qcurve"/>
      <point x="627" y="516"/>
      <point x="829" y="686"/>
      <point x="856" y="809" type="qcurve"/>
      <point x="864" y="846"/>
    </contour>
  </outline>
</glyph>
<glyph name="copyright" format="2">
  <advance width="1434"/>
  <unicode hex="00A9"/>
  <outline>
    <contour>
      <point x="1251" y="1192" type="qcurve"/>
      <point x="1251" y="1139"/>
      <point x="1239" y="1081" type="qcurve"/>
      <point x="1192" y="860"/>
      <point x="819" y="551"/>
      <point x="594" y="551" type="qcurve"/>
      <point x="406" y="551"/>
      <point x="162" y="782"/>
      <point x="162" y="969" type="qcurve"/>
      <point x="162" y="1024"/>
      <point x="174" y="1081" type="qcurve"/>
      <point x="221" y="1303"/>
      <point x="594" y="1614"/>
      <point x="819" y="1614" type="qcurve"/>
      <point x="1008" y="1614"/>
      <point x="1251" y="1378"/>
    </contour>
    <contour>
      <point x="1206" y="1186" type="qcurve"/>
      <point x="1206" y="1358"/>
      <point x="985" y="1571"/>
      <point x="811" y="1571" type="qcurve"/>
      <point x="602" y="1571"/>
      <point x="260" y="1286"/>
      <point x="217" y="1081" type="qcurve"/>
      <point x="205" y="1024"/>
      <point x="205" y="977" type="qcurve"/>
      <point x="205" y="805"/>
      <point x="428" y="592"/>
      <point x="602" y="592" type="qcurve"/>
      <point x="807" y="592"/>
      <point x="1153" y="879"/>
      <point x="1196" y="1081" type="qcurve"/>
      <point x="1206" y="1130"/>
    </contour>
    <contour>
      <point x="1034" y="1419" type="line"/>
      <point x="1008" y="1233" type="line"/>
      <point x="987" y="1401"/>
      <point x="797" y="1401" type="qcurve"/>
      <point x="532" y="1401"/>
      <point x="467" y="1092" type="qcurve"/>
      <point x="455" y="1034"/>
      <point x="455" y="989" type="qcurve"/>
      <point x="455" y="774"/>
      <point x="672" y="774" type="qcurve"/>
      <point x="788" y="774"/>
      <point x="938" y="885" type="qcurve"/>
      <point x="807" y="750"/>
      <point x="639" y="750" type="qcurve"/>
      <point x="518" y="750"/>
      <point x="442" y="817" type="qcurve"/>
      <point x="360" y="887"/>
      <point x="360" y="1006" type="qcurve"/>
      <point x="360" y="1049"/>
      <point x="367" y="1077" type="qcurve"/>
      <point x="397" y="1225"/>
      <point x="655" y="1419"/>
      <point x="809" y="1419" type="qcurve"/>
      <point x="838" y="1419"/>
      <point x="944" y="1384"/>
      <point x="973" y="1384" type="qcurve"/>
      <point x="1010" y="1384"/>
      <point x="1030" y="1419" type="qcurve"/>
    </contour>
  </outline>
</glyph>
<glyph name="degree" format="2">
  <advance width="766"/>
  <unicode hex="00B0"/>
  <outline>
    <contour>
      <point x="541" y="1382" type="qcurve"/>
      <point x="541" y="1284"/>
      <point x="410" y="1153"/>
      <point x="311" y="1153" type="qcurve"/>
      <point x="217" y="1153"/>
      <point x="82" y="1288"/>
      <point x="82" y="1382" type="qcurve"/>
      <point x="82" y="1477"/>
      <point x="217" y="1612"/>
      <point x="311" y="1612" type="qcurve"/>
      <point x="406" y="1612"/>
      <point x="541" y="1477"/>
    </contour>
    <contour>
      <point x="502" y="1382" type="qcurve"/>
      <point x="502" y="1462"/>
      <point x="391" y="1573"/>
      <point x="311" y="1573" type="qcurve"/>
      <point x="233" y="1573"/>
      <point x="121" y="1460"/>
      <point x="121" y="1382" type="qcurve"/>
      <point x="121" y="1305"/>
      <point x="233" y="1192"/>
      <point x="311" y="1192" type="qcurve"/>
      <point x="389" y="1192"/>
      <point x="502" y="1305"/>
    </contour>
  </outline>
</glyph>
<glyph name="middot" format="2">
  <advance width="428"/>
  <unicode hex="00B7"/>
  <outline>
    <contour>
      <point x="465" y="588" type="qcurve"/>
      <point x="465" y="539"/>
      <point x="438" y="494" type="qcurve"/>
      <point x="408" y="438"/>
      <point x="362" y="438" type="qcurve"/>
      <point x="268" y="438"/>
      <point x="268" y="522" type="qcurve"/>
      <point x="268" y="578"/>
      <point x="350" y="676"/>
      <point x="403" y="676" type="qcurve"/>
      <point x="465" y="676"/>
    </contour>
  </outline>
</glyph>
<glyph name="afii57929" format="2">
  <advance width="465"/>
  <unicode hex="02BC"/>
  <outline>
    <contour>
      <point x="387" y="1296" type="qcurve"/>
      <point x="387" y="1180"/>
      <point x="242" y="1044" type="qcurve"/>
      <point x="133" y="944"/>
      <point x="-8" y="868" type="qcurve"/>
      <point x="18" y="958" type="line"/>
      <point x="217" y="1069"/>
      <point x="238" y="1163" type="qcurve"/>
      <point x="221" y="1192" type="line"/>
      <point x="168" y="1174"/>
      <point x="131" y="1174" type="qcurve"/>
      <point x="102" y="1174"/>
      <point x="63" y="1227"/>
      <point x="63" y="1257" type="qcurve"/>
      <point x="63" y="1317"/>
      <point x="133" y="1362" type="qcurve"/>
      <point x="195" y="1403"/>
      <point x="258" y="1403" type="qcurve"/>
      <point x="307" y="1403"/>
      <point x="387" y="1343"/>
    </contour>
  </outline>
</glyph>
<glyph name="macronlowmod" format="2">
  <advance width="991"/>
  <unicode hex="02CD"/>
  <outline>
    <contour>
      <point x="836" y="164" type="line"/>
      <point x="795" y="0" type="line"/>
      <point x="106" y="0" type="line"/>
      <point x="145" y="164" type="line"/>
    </contour>
  </outline>
</glyph>
<glyph name="quoteright" format="2">
  <advance width="537"/>
  <unicode hex="2019"/>
  <outline>
    <contour>
      <point x="473" y="1204" type="qcurve"/>
      <point x="473" y="1047"/>
      <point x="322" y="905" type="qcurve"/>
      <point x="190" y="782"/>
      <point x="23" y="733" type="qcurve"/>
      <point x="41" y="791" type="line"/>
      <point x="250" y="864"/>
      <point x="319" y="1024" type="qcurve"/>
      <point x="262" y="1049" type="line"/>
      <point x="172" y="1053"/>
      <point x="172" y="1135" type="qcurve"/>
      <point x="172" y="1204"/>
      <point x="285" y="1323"/>
      <point x="354" y="1323" type="qcurve"/>
      <point x="473" y="1323"/>
    </contour>
  </outline>
</glyph>
<glyph name="quotedblright" format="2">
  <advance width="1155"/>
  <unicode hex="201D"/>
  <outline>
    <contour>
      <point x="1149" y="1102" type="qcurve"/>
      <point x="1149" y="944"/>
      <point x="997" y="803" type="qcurve"/>
      <point x="866" y="680"/>
      <point x="698" y="631" type="qcurve"/>
      <point x="717" y="688" type="line"/>
      <point x="926" y="762"/>
      <point x="995" y="922" type="qcurve"/>
      <point x="938" y="946" type="line"/>
      <point x="848" y="950"/>
      <point x="848" y="1032" type="qcurve"/>
      <point x="848" y="1102"/>
      <point x="961" y="1221"/>
      <point x="1030" y="1221" type="qcurve"/>
      <point x="1149" y="1221"/>
    </contour>
    <contour>
      <point x="649" y="1094" type="qcurve"/>
      <point x="649" y="930"/>
      <point x="502" y="793" type="qcurve"/>
      <point x="375" y="672"/>
      <point x="203" y="623" type="qcurve"/>
      <point x="221" y="682" type="line"/>
      <point x="410" y="743"/>
      <point x="494" y="911" type="qcurve"/>
      <point x="442" y="940" type="line"/>
      <point x="350" y="944"/>
      <point x="350" y="1028" type="qcurve"/>
      <point x="350" y="1098"/>
      <point x="465" y="1217"/>
      <point x="535" y="1217" type="qcurve"/>
      <point x="649" y="1217"/>
    </contour>
  </outline>
</glyph>
<glyph name="dblanglebracketright" format="2">
  <advance width="1100"/>
  <unicode hex="300B"/>
  <outline>
    <contour>
      <point x="155" y="-15" type="curve"/>
      <point x="635" y="674" type="line"/>
      <point x="423" y="1365" type="line"/>
      <point x="398" y="1354"/>
      <point x="374" y="1343"/>
      <point x="349" y="1333" type="curve"/>
      <point x="550" y="674" type="line"/>
      <point x="398" y="455"/>
      <point x="246" y="235"/>
      <point x="93" y="16" type="curve"/>
      <point x="113" y="5"/>
      <point x="135" y="-4"/>
    </contour>
    <contour>
      <point x="450" y="-15" type="curve"/>
      <point x="931" y="674" type="line"/>
      <point x="718" y="1365" type="line"/>
      <point x="693" y="1354"/>
      <point x="669" y="1343"/>
      <point x="644" y="1333" type="curve"/>
      <point x="845" y="674" type="line"/>
      <point x="693" y="455"/>
      <point x="541" y="235"/>
      <point x="388" y="16" type="curve"/>
      <point x="409" y="5"/>
      <point x="430" y="-4"/>
    </contour>
  </outline>
</glyph>
<glyph name="uniA4D3" format="2">
  <advance width="1106"/>
  <unicode hex="A4D3"/>
  <outline>
    <contour>
      <point x="1047" y="795" type="qcurve"/>
      <point x="1047" y="659"/>
      <point x="969" y="414" type="qcurve"/>
      <point x="956" y="371"/>
      <point x="913" y="264" type="qcurve"/>
      <point x="836" y="94"/>
      <point x="612" y="27" type="qcurve"/>
      <point x="465" y="-18"/>
      <point x="215" y="-18" type="qcurve"/>
      <point x="152" y="-18"/>
      <point x="113" y="25"/>
      <point x="109" y="156"/>
      <point x="109" y="215" type="qcurve"/>
      <point x="109" y="334"/>
      <point x="401" y="846"/>
      <point x="401" y="934" type="qcurve"/>
      <point x="401" y="971"/>
      <point x="348" y="987" type="qcurve"/>
      <point x="281" y="930"/>
      <point x="240" y="930" type="qcurve"/>
      <point x="225" y="930"/>
      <point x="180" y="956"/>
      <point x="180" y="971" type="qcurve"/>
      <point x="180" y="1061"/>
      <point x="348" y="1116" type="qcurve"/>
      <point x="477" y="1159"/>
      <point x="592" y="1159" type="qcurve"/>
      <point x="782" y="1159"/>
      <point x="905" y="1073" type="qcurve"/>
      <point x="1047" y="977"/>
    </contour>
    <contour>
      <point x="891" y="795" type="qcurve"/>
      <point x="891" y="913"/>
      <point x="803" y="977" type="qcurve"/>
      <point x="725" y="1030"/>
      <point x="600" y="1030" type="qcurve"/>
      <point x="555" y="1030"/>
      <point x="457" y="1001" type="qcurve"/>
      <point x="535" y="963"/>
      <point x="535" y="940" type="qcurve"/>
      <point x="535" y="821"/>
      <point x="399" y="580" type="qcurve"/>
      <point x="338" y="469"/>
      <point x="262" y="229" type="qcurve"/>
      <point x="248" y="184"/>
      <point x="248" y="162" type="qcurve"/>
      <point x="248" y="88"/>
      <point x="373" y="88" type="qcurve"/>
      <point x="426" y="88"/>
      <point x="541" y="135" type="qcurve"/>
      <point x="586" y="154"/>
      <point x="694" y="219" type="qcurve"/>
      <point x="782" y="293"/>
      <point x="840" y="485" type="qcurve"/>
      <point x="891" y="655"/>
    </contour>
  </outline>
</glyph>
<glyph name="uniA4D4" format="2">
  <advance width="1030"/>
  <unicode hex="A4D4"/>
  <outline>
    <contour>
      <point x="1130" y="1071" type="qcurve"/>
      <point x="1130" y="1001"/>
      <point x="1006" y="1001" type="qcurve"/>
      <point x="854" y="1001"/>
      <point x="637" y="1020" type="qcurve"/>
      <point x="764" y="948"/>
      <point x="764" y="938" type="qcurve"/>
      <point x="764" y="911"/>
      <point x="645" y="590" type="qcurve"/>
      <point x="575" y="403"/>
      <point x="500" y="184" type="qcurve"/>
      <point x="494" y="156"/>
      <point x="477" y="61" type="qcurve"/>
      <point x="455" y="-25"/>
      <point x="412" y="-25" type="qcurve"/>
      <point x="297" y="-25"/>
      <point x="297" y="18" type="qcurve"/>
      <point x="297" y="88"/>
      <point x="444" y="492" type="qcurve"/>
      <point x="477" y="578"/>
      <point x="618" y="1010" type="qcurve"/>
      <point x="557" y="1010"/>
      <point x="315" y="1001"/>
      <point x="254" y="1001" type="qcurve"/>
      <point x="205" y="1001"/>
      <point x="205" y="1051" type="qcurve"/>
      <point x="205" y="1083"/>
      <point x="236" y="1128" type="qcurve"/>
      <point x="248" y="1145"/>
      <point x="430" y="1145" type="qcurve"/>
      <point x="412" y="1145"/>
      <point x="553" y="1143" type="qcurve"/>
      <point x="723" y="1143"/>
      <point x="942" y="1141" type="qcurve"/>
      <point x="1130" y="1139"/>
    </contour>
  </outline>
</glyph>
<glyph name="uniA4D8" format="2">
  <advance width="1069"/>
  <unicode hex="A4D8"/>
  <outline>
    <contour>
      <point x="1073" y="1106" type="qcurve"/>
      <point x="1073" y="1055"/>
      <point x="1008" y="911" type="qcurve"/>
      <point x="915" y="711" type="line"/>
      <point x="983" y="680"/>
      <point x="983" y="647" type="qcurve"/>
      <point x="983" y="567"/>
      <point x="901" y="567" type="qcurve"/>
      <point x="891" y="567"/>
      <point x="879" y="569" type="qcurve"/>
      <point x="801" y="233" type="line"/>
      <point x="725" y="-16"/>
      <point x="637" y="-16" type="qcurve"/>
      <point x="555" y="-16"/>
      <point x="555" y="39" type="qcurve"/>
      <point x="555" y="59"/>
      <point x="575" y="113" type="qcurve"/>
      <point x="670" y="354"/>
      <point x="709" y="535" type="qcurve"/>
      <point x="580" y="496"/>
      <point x="301" y="250"/>
      <point x="248" y="127" type="qcurve"/>
      <point x="233" y="92"/>
      <point x="221" y="57" type="qcurve"/>
      <point x="203" y="12"/>
      <point x="182" y="-4" type="qcurve"/>
      <point x="156" y="-25"/>
      <point x="127" y="-25" type="qcurve"/>
      <point x="41" y="-25"/>
      <point x="41" y="61" type="qcurve"/>
      <point x="41" y="96"/>
      <point x="123" y="211" type="qcurve"/>
      <point x="387" y="582"/>
      <point x="635" y="655" type="qcurve"/>
      <point x="557" y="743"/>
      <point x="455" y="885" type="qcurve"/>
      <point x="319" y="1071"/>
      <point x="319" y="1116" type="qcurve"/>
      <point x="319" y="1165"/>
      <point x="373" y="1165" type="qcurve"/>
      <point x="451" y="1165"/>
      <point x="573" y="983" type="qcurve"/>
      <point x="723" y="760"/>
      <point x="754" y="735" type="qcurve"/>
      <point x="807" y="805"/>
      <point x="854" y="930" type="qcurve"/>
      <point x="915" y="1092"/>
      <point x="938" y="1133" type="qcurve"/>
      <point x="963" y="1153"/>
      <point x="1010" y="1153" type="qcurve"/>
      <point x="1073" y="1153"/>
    </contour>
  </outline>
</glyph>
<glyph name="uniA4DA" format="2">
  <advance width="997"/>
  <unicode hex="A4DA"/>
  <outline>
    <contour>
      <point x="975" y="958" type="qcurve"/>
      <point x="975" y="897"/>
      <point x="954" y="846" type="qcurve"/>
      <point x="928" y="776"/>
      <point x="877" y="776" type="qcurve"/>
      <point x="805" y="776"/>
      <point x="791" y="821" type="qcurve"/>
      <point x="834" y="907"/>
      <point x="834" y="958" type="qcurve"/>
      <point x="834" y="1038"/>
      <point x="743" y="1038" type="qcurve"/>
      <point x="543" y="1038"/>
      <point x="375" y="748" type="qcurve"/>
      <point x="225" y="487"/>
      <point x="225" y="272" type="qcurve"/>
      <point x="225" y="90"/>
      <point x="420" y="90" type="qcurve"/>
      <point x="518" y="90"/>
      <point x="580" y="164" type="qcurve"/>
      <point x="596" y="182"/>
      <point x="662" y="301" type="qcurve"/>
      <point x="702" y="375"/>
      <point x="750" y="375" type="qcurve"/>
      <point x="823" y="375"/>
      <point x="823" y="319" type="qcurve"/>
      <point x="823" y="252"/>
      <point x="735" y="143" type="qcurve"/>
      <point x="651" y="45"/>
      <point x="514" y="-23"/>
      <point x="451" y="-23" type="qcurve"/>
      <point x="432" y="-23"/>
      <point x="356" y="-18"/>
      <point x="338" y="-18" type="qcurve"/>
      <point x="205" y="-18"/>
      <point x="137" y="82" type="qcurve"/>
      <point x="80" y="166"/>
      <point x="80" y="305" type="qcurve"/>
      <point x="80" y="604"/>
      <point x="274" y="872" type="qcurve"/>
      <point x="485" y="1165"/>
      <point x="772" y="1165" type="qcurve"/>
      <point x="975" y="1165"/>
    </contour>
  </outline>
</glyph>
<glyph name="uniA4DC" format="2">
  <advance width="1010"/>
  <unicode hex="A4DC"/>
  <outline>
    <contour>
      <point x="1030" y="1038" type="line"/>
      <point x="1030" y="995"/>
      <point x="643" y="606" type="qcurve"/>
      <point x="203" y="164"/>
      <point x="162" y="113" type="qcurve"/>
      <point x="334" y="127"/>
      <point x="678" y="152" type="qcurve"/>
      <point x="678" y="172" type="line"/>
      <point x="766" y="117"/>
      <point x="766" y="100" type="qcurve"/>
      <point x="766" y="0"/>
      <point x="567" y="0" type="qcurve"/>
      <point x="512" y="0"/>
      <point x="512" y="0" type="qcurve"/>
      <point x="500" y="0"/>
      <point x="483" y="2" type="qcurve"/>
      <point x="469" y="2"/>
      <point x="467" y="2" type="qcurve"/>
      <point x="412" y="2"/>
      <point x="197" y="-6"/>
      <point x="141" y="-6" type="qcurve"/>
      <point x="4" y="-6"/>
      <point x="4" y="109" type="qcurve"/>
      <point x="4" y="152"/>
      <point x="389" y="537" type="qcurve"/>
      <point x="866" y="1016" type="line"/>
      <point x="782" y="1016"/>
      <point x="449" y="967"/>
      <point x="365" y="967" type="qcurve"/>
      <point x="315" y="967"/>
      <point x="315" y="1055" type="qcurve"/>
      <point x="315" y="1141"/>
      <point x="424" y="1141" type="qcurve"/>
      <point x="915" y="1141" type="line"/>
      <point x="973" y="1141"/>
      <point x="997" y="1128" type="qcurve"/>
      <point x="1030" y="1112"/>
      <point x="1030" y="1059" type="qcurve"/>
    </contour>
  </outline>
</glyph>
<glyph name="uniA4DD" format="2">
  <advance width="958"/>
  <unicode hex="A4DD"/>
  <outline>
    <contour>
      <point x="1083" y="1073" type="qcurve"/>
      <point x="1083" y="1016"/>
      <point x="1008" y="999" type="qcurve"/>
      <point x="973" y="991"/>
      <point x="870" y="989" type="qcurve"/>
      <point x="795" y="987"/>
      <point x="680" y="989" type="qcurve"/>
      <point x="526" y="991" type="line"/>
      <point x="557" y="944"/>
      <point x="559" y="940" type="qcurve"/>
      <point x="551" y="915"/>
      <point x="504" y="774" type="qcurve"/>
      <point x="444" y="598"/>
      <point x="436" y="563" type="qcurve"/>
      <point x="485" y="563"/>
      <point x="676" y="569"/>
      <point x="725" y="569" type="qcurve"/>
      <point x="750" y="569"/>
      <point x="807" y="541"/>
      <point x="807" y="518" type="qcurve"/>
      <point x="807" y="463"/>
      <point x="770" y="422"/>
      <point x="717" y="422" type="qcurve"/>
      <point x="674" y="422"/>
      <point x="506" y="428"/>
      <point x="463" y="428" type="qcurve"/>
      <point x="451" y="428"/>
      <point x="381" y="424" type="qcurve"/>
      <point x="350" y="340"/>
      <point x="322" y="256" type="qcurve"/>
      <point x="287" y="156"/>
      <point x="272" y="84" type="qcurve"/>
      <point x="254" y="-12"/>
      <point x="186" y="-12" type="qcurve"/>
      <point x="98" y="-12"/>
      <point x="98" y="41" type="qcurve"/>
      <point x="98" y="125"/>
      <point x="221" y="410" type="qcurve"/>
      <point x="168" y="424"/>
      <point x="168" y="446" type="qcurve"/>
      <point x="168" y="553"/>
      <point x="276" y="565" type="qcurve"/>
      <point x="315" y="729"/>
      <point x="426" y="981" type="qcurve"/>
      <point x="293" y="989"/>
      <point x="293" y="1032" type="qcurve"/>
      <point x="293" y="1145"/>
      <point x="449" y="1145" type="qcurve"/>
      <point x="985" y="1145" type="line"/>
      <point x="1020" y="1145"/>
      <point x="1083" y="1106"/>
    </contour>
  </outline>
</glyph>
<glyph name="uniA4DE" format="2">
  <advance width="981"/>
  <unicode hex="A4DE"/>
  <outline>
    <contour>
      <point x="948" y="1104" type="qcurve"/>
      <point x="948" y="1004"/>
      <point x="885" y="862" type="qcurve"/>
      <point x="850" y="784"/>
      <point x="778" y="629" type="qcurve"/>
      <point x="844" y="612"/>
      <point x="844" y="594" type="qcurve"/>
      <point x="844" y="498"/>
      <point x="737" y="487" type="qcurve"/>
      <point x="692" y="301"/>
      <point x="623" y="143" type="qcurve"/>
      <point x="743" y="137"/>
      <point x="743" y="92" type="qcurve"/>
      <point x="743" y="29"/>
      <point x="696" y="10" type="qcurve"/>
      <point x="670" y="0"/>
      <point x="594" y="0" type="qcurve"/>
      <point x="514" y="0"/>
      <point x="190" y="8"/>
      <point x="111" y="8" type="qcurve"/>
      <point x="10" y="8"/>
      <point x="10" y="59" type="qcurve"/>
      <point x="10" y="137"/>
      <point x="150" y="137" type="qcurve"/>
      <point x="164" y="137"/>
      <point x="217" y="131"/>
      <point x="231" y="131" type="qcurve"/>
      <point x="504" y="131" type="line"/>
      <point x="487" y="162"/>
      <point x="487" y="180" type="qcurve"/>
      <point x="487" y="231"/>
      <point x="569" y="436"/>
      <point x="569" y="475" type="qcurve"/>
      <point x="569" y="489" type="line"/>
      <point x="518" y="489"/>
      <point x="315" y="485"/>
      <point x="264" y="485" type="qcurve"/>
      <point x="215" y="485"/>
      <point x="215" y="522" type="qcurve"/>
      <point x="215" y="578"/>
      <point x="252" y="618"/>
      <point x="305" y="618" type="qcurve"/>
      <point x="358" y="618"/>
      <point x="567" y="612"/>
      <point x="621" y="612" type="qcurve"/>
      <point x="645" y="727"/>
      <point x="756" y="1065" type="qcurve"/>
      <point x="786" y="1159"/>
      <point x="856" y="1159" type="qcurve"/>
      <point x="948" y="1159"/>
    </contour>
  </outline>
</glyph>
<glyph name="uniA4E4" format="2">
  <advance width="1124"/>
  <unicode hex="A4E4"/>
  <outline>
    <contour>
      <point x="1077" y="1108" type="qcurve"/>
      <point x="1077" y="958"/>
      <point x="700" y="86" type="qcurve"/>
      <point x="850" y="244"/>
      <point x="866" y="244" type="qcurve"/>
      <point x="922" y="244"/>
      <point x="922" y="172" type="qcurve"/>
      <point x="922" y="63"/>
      <point x="768" y="14" type="qcurve"/>
      <point x="662" y="-20"/>
      <point x="524" y="-20" type="qcurve"/>
      <point x="356" y="-20"/>
      <point x="248" y="47" type="qcurve"/>
      <point x="117" y="127"/>
      <point x="117" y="285" type="qcurve"/>
      <point x="117" y="463"/>
      <point x="285" y="582" type="qcurve"/>
      <point x="418" y="678"/>
      <point x="616" y="715" type="qcurve"/>
      <point x="426" y="942" type="line"/>
      <point x="270" y="1128"/>
      <point x="270" y="1147" type="qcurve"/>
      <point x="270" y="1169"/>
      <point x="315" y="1188" type="qcurve"/>
      <point x="354" y="1204"/>
      <point x="381" y="1204" type="qcurve"/>
      <point x="416" y="1204"/>
      <point x="473" y="1116" type="qcurve"/>
      <point x="473" y="1116"/>
      <point x="522" y="1042" type="qcurve"/>
      <point x="614" y="930"/>
      <point x="797" y="702" type="qcurve"/>
      <point x="856" y="850"/>
      <point x="874" y="930" type="qcurve"/>
      <point x="883" y="969"/>
      <point x="918" y="1120"/>
      <point x="948" y="1137" type="qcurve"/>
      <point x="965" y="1145"/>
      <point x="989" y="1145" type="qcurve"/>
      <point x="1077" y="1145"/>
    </contour>
    <contour>
      <point x="766" y="756" type="qcurve"/>
      <point x="711" y="631" type="line"/>
      <point x="662" y="592"/>
      <point x="625" y="584" type="qcurve"/>
      <point x="575" y="580"/>
      <point x="526" y="575" type="qcurve"/>
      <point x="426" y="565"/>
      <point x="266" y="391"/>
      <point x="266" y="291" type="qcurve"/>
      <point x="266" y="205"/>
      <point x="360" y="147" type="qcurve"/>
      <point x="442" y="96"/>
      <point x="532" y="96" type="qcurve"/>
      <point x="561" y="96"/>
      <point x="668" y="125"/>
      <point x="692" y="127" type="qcurve"/>
      <point x="592" y="178"/>
      <point x="592" y="197" type="qcurve"/>
      <point x="592" y="219"/>
      <point x="623" y="272" type="qcurve"/>
      <point x="725" y="453"/>
    </contour>
  </outline>
</glyph>
<glyph name="uniA4E7" format="2">
  <advance width="1122"/>
  <unicode hex="A4E7"/>
  <outline>
    <contour>
      <point x="1133" y="1104" type="qcurve"/>
      <point x="1133" y="973"/>
      <point x="1034" y="721" type="qcurve"/>
      <point x="983" y="594"/>
      <point x="879" y="340" type="qcurve"/>
      <point x="866" y="297"/>
      <point x="836" y="172" type="qcurve"/>
      <point x="813" y="84"/>
      <point x="797" y="53" type="qcurve"/>
      <point x="762" y="-6"/>
      <point x="696" y="-6" type="qcurve"/>
      <point x="635" y="-6"/>
      <point x="635" y="27" type="qcurve"/>
      <point x="635" y="135"/>
      <point x="756" y="346" type="qcurve"/>
      <point x="762" y="395"/>
      <point x="797" y="487" type="qcurve"/>
      <point x="725" y="516" type="line"/>
      <point x="692" y="451"/>
      <point x="604" y="451" type="qcurve"/>
      <point x="592" y="451"/>
      <point x="549" y="457"/>
      <point x="537" y="457" type="qcurve"/>
      <point x="485" y="457"/>
      <point x="352" y="444" type="qcurve"/>
      <point x="297" y="238"/>
      <point x="217" y="4" type="qcurve"/>
      <point x="193" y="-6"/>
      <point x="168" y="-6" type="qcurve"/>
      <point x="84" y="-6"/>
      <point x="84" y="29" type="qcurve"/>
      <point x="84" y="113"/>
      <point x="129" y="238" type="qcurve"/>
      <point x="141" y="270"/>
      <point x="207" y="440" type="qcurve"/>
      <point x="113" y="449"/>
      <point x="113" y="475" type="qcurve"/>
      <point x="113" y="487"/>
      <point x="125" y="510" type="qcurve"/>
      <point x="143" y="553"/>
      <point x="174" y="561" type="qcurve"/>
      <point x="184" y="565"/>
      <point x="248" y="567" type="qcurve"/>
      <point x="434" y="1092" type="line"/>
      <point x="453" y="1143"/>
      <point x="500" y="1143" type="qcurve"/>
      <point x="600" y="1143"/>
      <point x="600" y="1096" type="qcurve"/>
      <point x="600" y="1036"/>
      <point x="403" y="569" type="qcurve"/>
      <point x="809" y="569" type="line"/>
      <point x="963" y="1065" type="line"/>
      <point x="987" y="1147"/>
      <point x="1040" y="1147" type="qcurve"/>
      <point x="1067" y="1147"/>
      <point x="1096" y="1139" type="qcurve"/>
      <point x="1133" y="1124"/>
    </contour>
  </outline>
</glyph>
<glyph name="uniA4EB" format="2">
  <advance width="1044"/>
  <unicode hex="A4EB"/>
  <outline>
    <contour>
      <point x="1096" y="1085" type="qcurve"/>
      <point x="1096" y="1038"/>
      <point x="893" y="838" type="qcurve"/>
      <point x="862" y="803"/>
      <point x="780" y="717" type="qcurve"/>
      <point x="692" y="629"/>
      <point x="627" y="555" type="qcurve"/>
      <point x="682" y="367"/>
      <point x="764" y="152" type="qcurve"/>
      <point x="793" y="76"/>
      <point x="793" y="43" type="qcurve"/>
      <point x="793" y="-31"/>
      <point x="719" y="-31" type="qcurve"/>
      <point x="623" y="-31"/>
      <point x="592" y="160" type="qcurve"/>
      <point x="575" y="262"/>
      <point x="508" y="426" type="qcurve"/>
      <point x="494" y="414"/>
      <point x="299" y="184" type="qcurve"/>
      <point x="143" y="0"/>
      <point x="84" y="0" type="qcurve"/>
      <point x="61" y="0"/>
      <point x="27" y="18" type="qcurve"/>
      <point x="-14" y="39"/>
      <point x="-14" y="57" type="qcurve"/>
      <point x="-14" y="72"/>
      <point x="41" y="121" type="qcurve"/>
      <point x="76" y="152"/>
      <point x="113" y="184" type="qcurve"/>
      <point x="223" y="322"/>
      <point x="457" y="588" type="qcurve"/>
      <point x="401" y="766"/>
      <point x="279" y="991" type="qcurve"/>
      <point x="229" y="1081"/>
      <point x="229" y="1108" type="qcurve"/>
      <point x="229" y="1128"/>
      <point x="262" y="1143" type="qcurve"/>
      <point x="289" y="1155"/>
      <point x="313" y="1155" type="qcurve"/>
      <point x="393" y="1155"/>
      <point x="436" y="1063" type="qcurve"/>
      <point x="494" y="903" type="line"/>
      <point x="506" y="877"/>
      <point x="522" y="793" type="qcurve"/>
      <point x="535" y="729"/>
      <point x="573" y="682" type="qcurve"/>
      <point x="631" y="780"/>
      <point x="791" y="952" type="qcurve"/>
      <point x="973" y="1151"/>
      <point x="1044" y="1151" type="qcurve"/>
      <point x="1096" y="1151"/>
    </contour>
  </outline>
</glyph>
<glyph name="uniA4F0" format="2">
  <advance width="1006"/>
  <unicode hex="A4F0"/>
  <outline>
    <contour>
      <point x="1016" y="1069" type="qcurve"/>
      <point x="1016" y="1032"/>
      <point x="969" y="981"/>
      <point x="932" y="981" type="qcurve"/>
      <point x="944" y="981"/>
      <point x="518" y="1010" type="qcurve"/>
      <point x="563" y="946"/>
      <point x="563" y="930" type="qcurve"/>
      <point x="563" y="870"/>
      <point x="510" y="778" type="qcurve"/>
      <point x="440" y="657"/>
      <point x="428" y="629" type="qcurve"/>
      <point x="477" y="629"/>
      <point x="674" y="635"/>
      <point x="723" y="635" type="qcurve"/>
      <point x="799" y="635"/>
      <point x="799" y="588" type="qcurve"/>
      <point x="799" y="539"/>
      <point x="760" y="506"/>
      <point x="707" y="500" type="qcurve"/>
      <point x="631" y="489"/>
      <point x="639" y="489" type="qcurve"/>
      <point x="606" y="489"/>
      <point x="379" y="498" type="qcurve"/>
      <point x="293" y="162" type="line"/>
      <point x="322" y="135"/>
      <point x="348" y="135" type="qcurve"/>
      <point x="401" y="135"/>
      <point x="616" y="143"/>
      <point x="670" y="143" type="qcurve"/>
      <point x="702" y="143"/>
      <point x="774" y="115"/>
      <point x="774" y="86" type="qcurve"/>
      <point x="774" y="16"/>
      <point x="694" y="0" type="qcurve"/>
      <point x="674" y="-4"/>
      <point x="559" y="-4" type="qcurve"/>
      <point x="246" y="-4"/>
      <point x="195" y="20" type="qcurve"/>
      <point x="121" y="55"/>
      <point x="121" y="131" type="qcurve"/>
      <point x="121" y="160"/>
      <point x="164" y="299" type="qcurve"/>
      <point x="221" y="485" type="line"/>
      <point x="143" y="508"/>
      <point x="143" y="553" type="qcurve"/>
      <point x="143" y="637"/>
      <point x="256" y="635" type="qcurve"/>
      <point x="260" y="641"/>
      <point x="279" y="655" type="qcurve"/>
      <point x="315" y="682"/>
      <point x="426" y="999" type="qcurve"/>
      <point x="360" y="981"/>
      <point x="350" y="981" type="qcurve"/>
      <point x="313" y="981"/>
      <point x="313" y="1012" type="qcurve"/>
      <point x="313" y="1098"/>
      <point x="381" y="1126" type="qcurve"/>
      <point x="424" y="1145"/>
      <point x="524" y="1145" type="qcurve"/>
      <point x="618" y="1145" type="line"/>
      <point x="1001" y="1145"/>
      <point x="1012" y="1112" type="qcurve"/>
      <point x="1016" y="1100"/>
    </contour>
  </outline>
</glyph>
<glyph name="uniA4F1" format="2">
  <advance width="971"/>
  <unicode hex="A4F1"/>
  <outline>
    <contour>
      <point x="954" y="1026" type="qcurve"/>
      <point x="954" y="944"/>
      <point x="854" y="684" type="qcurve"/>
      <point x="872" y="657"/>
      <point x="872" y="602" type="qcurve"/>
      <point x="872" y="555"/>
      <point x="803" y="522" type="qcurve"/>
      <point x="772" y="469"/>
      <point x="735" y="360" type="qcurve"/>
      <point x="696" y="246"/>
      <point x="670" y="197" type="qcurve"/>
      <point x="707" y="119"/>
      <point x="707" y="78" type="qcurve"/>
      <point x="707" y="39"/>
      <point x="674" y="12" type="qcurve"/>
      <point x="651" y="-6"/>
      <point x="410" y="-6" type="qcurve"/>
      <point x="74" y="-6"/>
      <point x="63" y="25" type="qcurve"/>
      <point x="59" y="37"/>
      <point x="59" y="68" type="qcurve"/>
      <point x="59" y="104"/>
      <point x="106" y="158"/>
      <point x="143" y="158" type="qcurve"/>
      <point x="180" y="158"/>
      <point x="332" y="141"/>
      <point x="369" y="141" type="qcurve"/>
      <point x="528" y="141" type="line"/>
      <point x="526" y="174" type="line"/>
      <point x="537" y="201" type="line"/>
      <point x="561" y="266"/>
      <point x="649" y="532" type="qcurve"/>
      <point x="604" y="532"/>
      <point x="422" y="524"/>
      <point x="377" y="524" type="qcurve"/>
      <point x="287" y="524"/>
      <point x="287" y="573" type="qcurve"/>
      <point x="287" y="625"/>
      <point x="319" y="643" type="qcurve"/>
      <point x="336" y="653"/>
      <point x="399" y="664" type="qcurve"/>
      <point x="446" y="672"/>
      <point x="459" y="672" type="qcurve"/>
      <point x="500" y="672"/>
      <point x="666" y="666"/>
      <point x="707" y="666" type="qcurve"/>
      <point x="729" y="727"/>
      <point x="782" y="985" type="qcurve"/>
      <point x="741" y="999"/>
      <point x="715" y="999" type="qcurve"/>
      <point x="659" y="999"/>
      <point x="440" y="991"/>
      <point x="385" y="991" type="qcurve"/>
      <point x="279" y="991"/>
      <point x="279" y="1053" type="qcurve"/>
      <point x="279" y="1149"/>
      <point x="451" y="1149" type="qcurve"/>
      <point x="438" y="1149"/>
      <point x="504" y="1147" type="qcurve"/>
      <point x="504" y="1147"/>
      <point x="547" y="1147" type="qcurve"/>
      <point x="604" y="1147"/>
      <point x="604" y="1147" type="qcurve"/>
      <point x="682" y="1149"/>
      <point x="664" y="1149" type="qcurve"/>
      <point x="954" y="1149"/>
    </contour>
  </outline>
</glyph>
<glyph name="uniA4F2" format="2">
  <advance width="602"/>
  <unicode hex="A4F2"/>
  <outline>
    <contour>
      <point x="635" y="1087" type="qcurve"/>
      <point x="471" y="698" type="line"/>
      <point x="381" y="479"/>
      <point x="340" y="299" type="qcurve"/>
      <point x="328" y="236"/>
      <point x="299" y="106" type="qcurve"/>
      <point x="264" y="-27"/>
      <point x="188" y="-27" type="qcurve"/>
      <point x="119" y="-27"/>
      <point x="119" y="20" type="qcurve"/>
      <point x="119" y="166"/>
      <point x="272" y="625" type="qcurve"/>
      <point x="434" y="1108"/>
      <point x="526" y="1147" type="qcurve"/>
      <point x="541" y="1153"/>
      <point x="571" y="1153" type="qcurve"/>
      <point x="639" y="1153"/>
    </contour>
  </outline>
</glyph>
<glyph name="uniA4F4" format="2">
  <advance width="1083"/>
  <unicode hex="A4F4"/>
  <outline>
    <contour>
      <point x="1116" y="1094" type="qcurve"/>
      <point x="1116" y="1022"/>
      <point x="977" y="643" type="qcurve"/>
      <point x="842" y="272"/>
      <point x="791" y="186" type="qcurve"/>
      <point x="666" y="-20"/>
      <point x="416" y="-20" type="qcurve"/>
      <point x="287" y="-20"/>
      <point x="207" y="29" type="qcurve"/>
      <point x="109" y="88"/>
      <point x="109" y="209" type="qcurve"/>
      <point x="109" y="362"/>
      <point x="197" y="649" type="qcurve"/>
      <point x="279" y="920"/>
      <point x="360" y="1073" type="qcurve"/>
      <point x="401" y="1153"/>
      <point x="457" y="1153" type="qcurve"/>
      <point x="528" y="1153"/>
      <point x="528" y="1098" type="qcurve"/>
      <point x="528" y="1042"/>
      <point x="473" y="918" type="qcurve"/>
      <point x="444" y="858"/>
      <point x="391" y="735" type="qcurve"/>
      <point x="258" y="408"/>
      <point x="258" y="205" type="qcurve"/>
      <point x="258" y="156"/>
      <point x="322" y="121" type="qcurve"/>
      <point x="377" y="90"/>
      <point x="432" y="90" type="qcurve"/>
      <point x="518" y="90"/>
      <point x="596" y="160" type="qcurve"/>
      <point x="641" y="199"/>
      <point x="758" y="528" type="qcurve"/>
      <point x="862" y="819"/>
      <point x="893" y="946" type="qcurve"/>
      <point x="903" y="993"/>
      <point x="915" y="1038" type="qcurve"/>
      <point x="934" y="1102"/>
      <point x="952" y="1122" type="qcurve"/>
      <point x="981" y="1153"/>
      <point x="1016" y="1153" type="qcurve"/>
      <point x="1047" y="1153"/>
      <point x="1077" y="1139" type="qcurve"/>
      <point x="1116" y="1120"/>
    </contour>
  </outline>
</glyph>
<glyph name="uniA4F6" format="2">
  <advance width="915"/>
  <unicode hex="A4F6"/>
  <outline>
    <contour>
      <point x="897" y="1061" type="qcurve"/>
      <point x="897" y="895"/>
      <point x="756" y="571" type="qcurve"/>
      <point x="682" y="410"/>
      <point x="535" y="88" type="qcurve"/>
      <point x="518" y="53"/>
      <point x="502" y="25" type="qcurve"/>
      <point x="471" y="-16"/>
      <point x="432" y="-16" type="qcurve"/>
      <point x="358" y="-16"/>
      <point x="358" y="39" type="qcurve"/>
      <point x="358" y="166"/>
      <point x="479" y="399" type="qcurve"/>
      <point x="649" y="727"/>
      <point x="659" y="756" type="qcurve"/>
      <point x="723" y="926"/>
      <point x="766" y="1159" type="qcurve"/>
      <point x="754" y="1143" type="line"/>
      <point x="897" y="1143"/>
    </contour>
    <contour>
      <point x="754" y="1143" type="qcurve"/>
      <point x="344" y="1143" type="line"/>
      <point x="301" y="1143"/>
      <point x="229" y="1081"/>
      <point x="229" y="1038" type="qcurve"/>
      <point x="229" y="1022"/>
      <point x="252" y="979"/>
      <point x="266" y="979" type="qcurve"/>
      <point x="520" y="979"/>
      <point x="666" y="1010" type="qcurve"/>
      <point x="696" y="1055"/>
    </contour>
  </outline>
</glyph>
<glyph name="uniA4F7" format="2">
  <advance width="1139"/>
  <unicode hex="A4F7"/>
  <outline>
    <contour>
      <point x="1157" y="1053" type="qcurve"/>
      <point x="1157" y="1051"/>
      <point x="1090" y="899" type="qcurve"/>
      <point x="1038" y="776"/>
      <point x="899" y="463" type="qcurve"/>
      <point x="805" y="262"/>
      <point x="788" y="164" type="qcurve"/>
      <point x="846" y="166"/>
      <point x="881" y="180" type="qcurve"/>
      <point x="928" y="106"/>
      <point x="928" y="66" type="qcurve"/>
      <point x="928" y="35"/>
      <point x="805" y="4" type="qcurve"/>
      <point x="700" y="-23"/>
      <point x="651" y="-23" type="qcurve"/>
      <point x="156" y="-23"/>
      <point x="156" y="344" type="qcurve"/>
      <point x="156" y="768"/>
      <point x="446" y="1012" type="qcurve"/>
      <point x="627" y="1163"/>
      <point x="836" y="1163" type="qcurve"/>
      <point x="1042" y="1163"/>
    </contour>
    <contour>
      <point x="948" y="963" type="qcurve"/>
      <point x="948" y="1028"/>
      <point x="809" y="1028" type="qcurve"/>
      <point x="600" y="1028"/>
      <point x="455" y="782" type="qcurve"/>
      <point x="328" y="567"/>
      <point x="328" y="342" type="qcurve"/>
      <point x="328" y="106"/>
      <point x="590" y="106" type="qcurve"/>
      <point x="655" y="106"/>
      <point x="692" y="164" type="qcurve"/>
      <point x="666" y="176" type="line"/>
      <point x="664" y="186"/>
      <point x="664" y="197" type="qcurve"/>
      <point x="664" y="324"/>
      <point x="948" y="831"/>
    </contour>
  </outline>
</glyph>
<glyph name="uniA4F8" format="2">
  <advance width="397"/>
  <unicode hex="A4F8"/>
  <outline>
    <contour>
      <point x="279" y="152" type="qcurve"/>
      <point x="279" y="80"/>
      <point x="152" y="-16"/>
      <point x="78" y="-16" type="qcurve"/>
      <point x="35" y="-16"/>
      <point x="-41" y="39"/>
      <point x="-41" y="80" type="qcurve"/>
      <point x="-41" y="152"/>
      <point x="86" y="246"/>
      <point x="160" y="246" type="qcurve"/>
      <point x="203" y="246"/>
      <point x="279" y="193"/>
    </contour>
  </outline>
</glyph>
<glyph name="uniA4F9" format="2">
  <advance width="465"/>
  <unicode hex="A4F9"/>
  <outline>
    <contour>
      <point x="346" y="129" type="qcurve"/>
      <point x="346" y="12"/>
      <point x="201" y="-123" type="qcurve"/>
      <point x="92" y="-223"/>
      <point x="-49" y="-299" type="qcurve"/>
      <point x="-23" y="-209" type="line"/>
      <point x="176" y="-98"/>
      <point x="197" y="-4" type="qcurve"/>
      <point x="180" y="25" type="line"/>
      <point x="127" y="6"/>
      <point x="90" y="6" type="qcurve"/>
      <point x="61" y="6"/>
      <point x="23" y="59"/>
      <point x="23" y="90" type="qcurve"/>
      <point x="23" y="150"/>
      <point x="92" y="195" type="qcurve"/>
      <point x="154" y="236"/>
      <point x="217" y="236" type="qcurve"/>
      <point x="266" y="236"/>
      <point x="346" y="176"/>
    </contour>
  </outline>
</glyph>
<glyph name="uniA4FA" format="2">
  <advance width="887"/>
  <unicode hex="A4FA"/>
  <outline>
    <contour>
      <point x="768" y="143" type="qcurve"/>
      <point x="768" y="74"/>
      <point x="645" y="-18"/>
      <point x="573" y="-18" type="qcurve"/>
      <point x="528" y="-18"/>
      <point x="457" y="37"/>
      <point x="457" y="80" type="qcurve"/>
      <point x="457" y="147"/>
      <point x="522" y="197" type="qcurve"/>
      <point x="582" y="242"/>
      <point x="651" y="242" type="qcurve"/>
      <point x="696" y="242"/>
      <point x="768" y="186"/>
    </contour>
    <contour>
      <point x="268" y="141" type="qcurve"/>
      <point x="268" y="74"/>
      <point x="145" y="-18"/>
      <point x="76" y="-18" type="qcurve"/>
      <point x="31" y="-18"/>
      <point x="-41" y="37"/>
      <point x="-41" y="80" type="qcurve"/>
      <point x="-41" y="147"/>
      <point x="82" y="242"/>
      <point x="152" y="242" type="qcurve"/>
      <point x="199" y="242"/>
      <point x="268" y="186"/>
    </contour>
  </outline>
</glyph>
<glyph name="uniA4FB" format="2">
  <advance width="911"/>
  <unicode hex="A4FB"/>
  <outline>
    <contour>
      <point x="778" y="168" type="qcurve"/>
      <point x="778" y="20"/>
      <point x="565" y="-240"/>
      <point x="420" y="-287" type="qcurve"/>
      <point x="420" y="-229" type="line"/>
      <point x="614" y="-150"/>
      <point x="625" y="0" type="qcurve"/>
      <point x="598" y="14" type="line"/>
      <point x="559" y="6" type="line"/>
      <point x="526" y="10"/>
      <point x="479" y="70"/>
      <point x="479" y="104" type="qcurve"/>
      <point x="479" y="174"/>
      <point x="594" y="289"/>
      <point x="664" y="289" type="qcurve"/>
      <point x="778" y="289"/>
    </contour>
    <contour>
      <point x="258" y="178" type="qcurve"/>
      <point x="258" y="106"/>
      <point x="137" y="-4"/>
      <point x="66" y="-4" type="qcurve"/>
      <point x="20" y="-4"/>
      <point x="-41" y="53"/>
      <point x="-41" y="98" type="qcurve"/>
      <point x="-41" y="172"/>
      <point x="78" y="281"/>
      <point x="152" y="281" type="qcurve"/>
      <point x="197" y="281"/>
      <point x="258" y="223"/>
    </contour>
  </outline>
</glyph>
<glyph name="uniA4FE" format="2">
  <advance width="1206"/>
  <unicode hex="A4FE"/>
  <outline>
    <contour>
      <point x="1053" y="158" type="qcurve"/>
      <point x="1053" y="86"/>
      <point x="920" y="-14"/>
      <point x="846" y="-14" type="qcurve"/>
      <point x="799" y="-14"/>
      <point x="723" y="43"/>
      <point x="723" y="88" type="qcurve"/>
      <point x="723" y="162"/>
      <point x="793" y="211" type="qcurve"/>
      <point x="856" y="256"/>
      <point x="932" y="256" type="qcurve"/>
      <point x="979" y="256"/>
      <point x="1053" y="203"/>
    </contour>
    <contour>
      <point x="778" y="555" type="line"/>
      <point x="737" y="418" type="line"/>
      <point x="154" y="418" type="line"/>
      <point x="195" y="555" type="line"/>
    </contour>
  </outline>
</glyph>
<glyph name=".notdef" format="2">
  <advance width="1024"/>
  <outline>
    <contour>
      <point x="129" y="0" type="line"/>
      <point x="129" y="1640" type="line"/>
      <point x="897" y="1640" type="line"/>
      <point x="897" y="0" type="line"/>
    </contour>
    <contour>
      <point x="256" y="129" type="line"/>
      <point x="768" y="129" type="line"/>
      <point x="768" y="1513" type="line"/>
      <point x="256" y="1513" type="line"/>
    </contour>
  </outline>
</glyph>
